%FSLAX23Y23*%
%MOIN*%
G04 EasyPC Gerber Version 17.0 Build 3379 *
%ADD72C,0.01756*%
%ADD74C,0.05269*%
%ADD80C,0.08782*%
%ADD73C,0.10539*%
X0Y0D02*
D02*
D72*
X1827Y6698D02*
X2354Y6918D01*
X1827Y7138*
X2354Y7621D02*
X1827D01*
Y7401D02*
Y7840D01*
X2223Y8104D02*
X2310Y8147D01*
X2354Y8235*
Y8411*
X2310Y8499*
X2223Y8543*
X2135Y8499*
X2091Y8411*
Y8235*
X2047Y8147*
X1959Y8104*
X1871Y8147*
X1827Y8235*
Y8411*
X1871Y8499*
X1959Y8543*
X1827Y9509D02*
X2354D01*
Y9948*
X2179Y10211D02*
X2003D01*
X1915Y10255*
X1871Y10299*
X1827Y10387*
Y10475*
X1871Y10563*
X1915Y10606*
X2003Y10650*
X2179*
X2266Y10606*
X2310Y10563*
X2354Y10475*
Y10387*
X2310Y10299*
X2266Y10255*
X2179Y10211*
Y10914D02*
X2003D01*
X1915Y10958*
X1871Y11002*
X1827Y11089*
Y11177*
X1871Y11265*
X1915Y11309*
X2003Y11353*
X2179*
X2266Y11309*
X2310Y11265*
X2354Y11177*
Y11089*
X2310Y11002*
X2266Y10958*
X2179Y10914*
X2354Y11616D02*
X1827D01*
X2091Y11836*
X1827Y12055*
X2354*
Y12319D02*
X1827Y12538D01*
X2354Y12758*
X2135Y12407D02*
Y12670D01*
X2354Y13812D02*
Y13987D01*
Y13900D02*
X1827D01*
X1915Y13812*
X2354Y14558D02*
X2310Y14646D01*
X2223Y14734*
X2091Y14778*
X1959*
X1871Y14734*
X1827Y14646*
Y14558*
X1871Y14471*
X1959Y14427*
X2047Y14471*
X2091Y14558*
Y14646*
X2047Y14734*
X1959Y14778*
X2354Y15173D02*
X2310Y15217D01*
X2266Y15173*
X2310Y15129*
X2354Y15173*
X2310Y15832D02*
X2354Y15920D01*
Y16051*
X2310Y16139*
X2223Y16183*
X2179*
X2091Y16139*
X2047Y16051*
Y15832*
X1827*
Y16183*
Y16534D02*
X2354Y16754D01*
X1827Y16973*
X2091Y18247D02*
X2135Y18335D01*
X2223Y18378*
X2310Y18335*
X2354Y18247*
Y17939*
X1827*
Y18247*
X1871Y18335*
X1959Y18378*
X2047Y18335*
X2091Y18247*
Y17939*
X2223Y18642D02*
X2310Y18686D01*
X2354Y18774*
Y18862*
X2310Y18949*
X2223Y18993*
X2135*
X2047Y18949*
X2003Y18862*
Y18774*
X2047Y18686*
X2135Y18642*
X2223*
Y19345D02*
X2310Y19388D01*
X2354Y19476*
Y19564*
X2310Y19652*
X2223Y19696*
X2135*
X2047Y19652*
X2003Y19564*
Y19476*
X2047Y19388*
X2135Y19345*
X2223*
X2310Y20047D02*
X2354Y20135D01*
Y20311*
X2310Y20398*
X2223*
X2179Y20311*
Y20135*
X2135Y20047*
X2047*
X2003Y20135*
Y20311*
X2047Y20398*
X2003Y20837D02*
Y21013D01*
X1915Y20925D02*
X2310D01*
X2354Y20969*
Y21013*
X2310Y21057*
X2354Y22374D02*
X1827D01*
Y22155D02*
Y22594D01*
X2310Y23209D02*
X2354Y23165D01*
Y23077*
Y22989*
X2310Y22901*
X2223Y22857*
X2091*
X2047Y22901*
X2003Y22989*
Y23077*
X2047Y23165*
X2091Y23209*
X2135*
X2179Y23165*
X2223Y23077*
Y22989*
X2179Y22901*
X2135Y22857*
X2310Y23560D02*
X2354Y23648D01*
Y23823*
X2310Y23911*
X2223*
X2179Y23823*
Y23648*
X2135Y23560*
X2047*
X2003Y23648*
Y23823*
X2047Y23911*
X2003Y24350D02*
Y24526D01*
X1915Y24438D02*
X2310D01*
X2354Y24482*
Y24526*
X2310Y24570*
X2091Y25975D02*
X2135Y26063D01*
X2223Y26107*
X2310Y26063*
X2354Y25975*
Y25668*
X1827*
Y25975*
X1871Y26063*
X1959Y26107*
X2047Y26063*
X2091Y25975*
Y25668*
X2223Y26370D02*
X2310Y26414D01*
X2354Y26502*
Y26590*
X2310Y26677*
X2223Y26721*
X2135*
X2047Y26677*
X2003Y26590*
Y26502*
X2047Y26414*
X2135Y26370*
X2223*
X2047Y27073D02*
X2003Y27160D01*
Y27292*
X2047Y27380*
X2135Y27424*
X2266*
X2310Y27380*
X2354Y27292*
Y27204*
X2310Y27117*
X2266Y27073*
X2223*
X2179Y27117*
X2135Y27204*
Y27292*
X2179Y27380*
X2223Y27424*
X2266D02*
X2354D01*
Y27775D02*
X2003D01*
X2135D02*
X2047Y27819D01*
X2003Y27907*
Y27995*
X2047Y28083*
X2135Y28829D02*
X2047Y28785D01*
X2003Y28697*
Y28610*
X2047Y28522*
X2135Y28478*
X2223*
X2310Y28522*
X2354Y28610*
Y28697*
X2310Y28785*
X2223Y28829*
X2354D02*
X1827D01*
X34331Y6927D02*
Y7146D01*
X34440Y7037D02*
X34221D01*
X34440Y7421D02*
Y7531D01*
Y7476D02*
X34111D01*
X34166Y7421*
X34440Y8025D02*
Y7805D01*
X34248Y7997*
X34193Y8025*
X34139Y7997*
X34111Y7942*
Y7860*
X34139Y7805*
X34111Y8244D02*
X34440Y8381D01*
X34111Y8519*
X34366Y8929D02*
Y9149D01*
X34476Y9039D02*
X34256D01*
X34476Y9423D02*
Y9533D01*
Y9478D02*
X34146D01*
X34201Y9423*
X34476Y10027D02*
Y9807D01*
X34283Y9999*
X34229Y10027*
X34174Y9999*
X34146Y9944*
Y9862*
X34174Y9807*
X34146Y10246D02*
X34476Y10384D01*
X34146Y10521*
X9074Y8964D02*
Y9184D01*
X9183Y9074D02*
X8964D01*
X9183Y9458D02*
Y9568D01*
Y9513D02*
X8854D01*
X8909Y9458*
X9183Y9925D02*
X9156Y9980D01*
X9101Y10034*
X9019Y10062*
X8936*
X8882Y10034*
X8854Y9980*
Y9925*
X8882Y9870*
X8936Y9842*
X8991Y9870*
X9019Y9925*
Y9980*
X8991Y10034*
X8936Y10062*
X9183Y10309D02*
X9156Y10336D01*
X9129Y10309*
X9156Y10281*
X9183Y10309*
X9156Y10721D02*
X9183Y10775D01*
Y10858*
X9156Y10913*
X9101Y10940*
X9074*
X9019Y10913*
X8991Y10858*
Y10721*
X8854*
Y10940*
Y11160D02*
X9183Y11297D01*
X8854Y11434*
X34338Y11475D02*
Y11557D01*
X34366*
X34421Y11530*
X34448Y11502*
X34476Y11447*
Y11392*
X34448Y11338*
X34421Y11310*
X34366Y11283*
X34256*
X34201Y11310*
X34174Y11338*
X34146Y11392*
Y11447*
X34174Y11502*
X34201Y11530*
X34256Y11557*
X34476Y11722D02*
X34146D01*
X34476Y11996*
X34146*
X34476Y12161D02*
X34146D01*
Y12325*
X34174Y12380*
X34201Y12408*
X34256Y12435*
X34366*
X34421Y12408*
X34448Y12380*
X34476Y12325*
Y12161*
X9046Y12704D02*
Y12787D01*
X9074*
X9129Y12759*
X9156Y12732*
X9183Y12677*
Y12622*
X9156Y12567*
X9129Y12540*
X9074Y12512*
X8964*
X8909Y12540*
X8882Y12567*
X8854Y12622*
Y12677*
X8882Y12732*
X8909Y12759*
X8964Y12787*
X9183Y12951D02*
X8854D01*
X9183Y13226*
X8854*
X9183Y13390D02*
X8854D01*
Y13555*
X8882Y13610*
X8909Y13637*
X8964Y13665*
X9074*
X9129Y13637*
X9156Y13610*
X9183Y13555*
Y13390*
X34356Y13319D02*
Y13401D01*
X34383*
X34438Y13374*
X34466Y13346*
X34493Y13291*
Y13237*
X34466Y13182*
X34438Y13154*
X34383Y13127*
X34274*
X34219Y13154*
X34191Y13182*
X34164Y13237*
Y13291*
X34191Y13346*
X34219Y13374*
X34274Y13401*
X34493Y13566D02*
X34164D01*
X34493Y13840*
X34164*
X34493Y14005D02*
X34164D01*
Y14170*
X34191Y14225*
X34219Y14252*
X34274Y14280*
X34383*
X34438Y14252*
X34466Y14225*
X34493Y14170*
Y14005*
D02*
D73*
X11303Y9818D02*
Y8613D01*
X16792*
Y9818*
X13957Y10125D02*
Y11003D01*
X13430Y10213D02*
X13957Y10564D01*
X13430Y10125*
Y11003*
X13957Y10564*
X13430Y10476*
Y10301D02*
X13957Y10564D01*
X13430Y10389*
X13255Y10564D02*
X14133D01*
X13430Y10740D02*
X13957Y10564D01*
X13430Y10652*
Y10916D02*
X13957Y10564D01*
X13430Y10828*
X16792Y11750D02*
Y12960D01*
X11303*
Y11750*
X31036Y15113D02*
Y15953D01*
X17452Y15902D02*
X18362D01*
X29789Y15953D02*
Y15113D01*
X30413Y17342D02*
G75*
G03Y17448J53D01*
G01*
G75*
G03Y17342J-53*
G01*
X23744Y17501D02*
X23217Y17852D01*
X23744Y17588*
Y17676D02*
X23217Y17852D01*
X23744Y17764*
X18362Y17764D02*
X17452D01*
X23919Y17852D02*
X23041D01*
X23744Y18115D02*
X23217Y17852D01*
X23744Y18027*
Y18203D02*
X23217Y17852D01*
X23744Y18291*
Y17413*
X23217Y17852*
X23744Y17940*
X23217Y18291D02*
Y17413D01*
X26979Y18493D02*
X24046D01*
Y17210*
X26979*
Y18493*
X30922Y19705D02*
X31449D01*
X31186Y19968D02*
Y19441D01*
X31963Y20706D02*
X32740Y21483D01*
X31688Y20706D02*
X32740D01*
Y23815*
X31688*
X30408Y20706D02*
X29631Y21483D01*
X28454Y21059D02*
Y21248D01*
X27488D02*
Y21059D01*
X30683Y23815D02*
X29631D01*
Y20706*
X30683*
X26145Y24475D02*
Y25385D01*
X32484Y25259D02*
G75*
G03X33653Y26896I-561J1637D01*
G01*
Y27932*
G75*
G03X32628Y29512I-1730*
G01*
X24283Y25385D02*
Y24475D01*
X29236Y27847D02*
Y28757D01*
X27374D02*
Y27847D01*
X31219Y29512D02*
G75*
G03X30193Y27932I704J-1580D01*
G01*
Y26896*
G75*
G03X31362Y25259I1730*
G01*
D02*
D74*
X17181Y11471D02*
X17126Y11526D01*
X17071Y11636*
Y11801*
X17126Y11911*
X17181Y11965*
X17290Y12020*
X17510*
X17620Y11965*
X17675Y11911*
X17729Y11801*
Y11636*
X17675Y11526*
X17620Y11471*
X17071Y11142D02*
X17729D01*
Y10758*
X17675Y10648*
X17565Y10593*
X17455Y10648*
X17400Y10758*
Y11142*
Y10758D02*
X17071Y10593D01*
X17126Y10209D02*
X17071Y10099D01*
Y9989*
X17126Y9880*
X17235Y9825*
X17345Y9880*
X17400Y9989*
Y10099*
Y9989D02*
X17455Y9880D01*
X17565Y9825*
X17675Y9880*
X17729Y9989*
Y10099*
X17675Y10209*
X29366Y15538D02*
X29420Y15483D01*
X29475Y15373*
Y15208*
X29420Y15098*
X29366Y15044*
X29256Y14989*
X29036*
X28926Y15044*
X28872Y15098*
X28817Y15208*
Y15373*
X28872Y15483*
X28926Y15538*
X29475Y15977D02*
Y16196D01*
Y16086D02*
X28817D01*
X28926Y15977*
X18500Y15540D02*
X18555Y15595D01*
X18665Y15650*
X18829*
X18939Y15595*
X18994Y15540*
X19049Y15430*
Y15210*
X18994Y15101*
X18939Y15046*
X18829Y14991*
X18665*
X18555Y15046*
X18500Y15101*
X18116Y15595D02*
X18006Y15650D01*
X17896*
X17787Y15595*
X17732Y15485*
X17787Y15375*
X17896Y15320*
X18006*
X17896D02*
X17787Y15265D01*
X17732Y15156*
X17787Y15046*
X17896Y14991*
X18006*
X18116Y15046*
X17293Y15595D02*
X17183Y15650D01*
X17018*
X16908Y15595*
X16853Y15485*
Y15430*
X16908Y15320*
X17018Y15265*
X17293*
Y14991*
X16853*
X26162Y18179D02*
Y17520D01*
X25833*
X25723Y17575*
X25668Y17630*
X25613Y17740*
Y17959*
X25668Y18069*
X25723Y18124*
X25833Y18179*
X26162*
X25174D02*
X24955D01*
X25065D02*
Y17520D01*
X25174Y17630*
X27280Y20486D02*
X26621D01*
Y20870*
X26676Y20980*
X26786Y21035*
X26896Y20980*
X26950Y20870*
Y20486*
Y20870D02*
X27280Y21035D01*
X26950Y21529D02*
Y21639D01*
X26896Y21749*
X26786Y21803*
X26676Y21749*
X26621Y21639*
Y21529*
X26676Y21419*
X26786Y21364*
X26896Y21419*
X26950Y21529*
X27005Y21419*
X27115Y21364*
X27225Y21419*
X27280Y21529*
Y21639*
X27225Y21749*
X27115Y21803*
X27005Y21749*
X26950Y21639*
X29383Y21738D02*
X29438Y21683D01*
X29493Y21573*
Y21408*
X29438Y21299*
X29383Y21244*
X29273Y21189*
X29054*
X28944Y21244*
X28889Y21299*
X28834Y21408*
Y21573*
X28889Y21683*
X28944Y21738*
X29493Y22177D02*
Y22396D01*
Y22286D02*
X28834D01*
X28944Y22177*
X29493Y23384D02*
Y22945D01*
X29109Y23329*
X28999Y23384*
X28889Y23329*
X28834Y23220*
Y23055*
X28889Y22945*
X24048Y21558D02*
X23389D01*
Y21942*
X23444Y22052*
X23554Y22106*
X23664Y22052*
X23719Y21942*
Y21558*
Y21942D02*
X24048Y22106D01*
X23993Y22436D02*
X24048Y22546D01*
Y22710*
X23993Y22820*
X23883Y22875*
X23829*
X23719Y22820*
X23664Y22710*
Y22436*
X23389*
Y22875*
X23993Y23369D02*
X24048Y23479D01*
Y23588*
X23993Y23698*
X23883Y23753*
X23554*
X23444Y23698*
X23389Y23588*
Y23479*
X23444Y23369*
X23554Y23314*
X23883*
X23993Y23369*
X23444Y23698*
X27192Y22453D02*
X26533D01*
Y22838*
X26588Y22947*
X26698Y23002*
X26808Y22947*
X26863Y22838*
Y22453*
Y22838D02*
X27192Y23002D01*
X27137Y23386D02*
X27192Y23496D01*
Y23606*
X27137Y23716*
X27027Y23771*
X26918Y23716*
X26863Y23606*
Y23496*
Y23606D02*
X26808Y23716D01*
X26698Y23771*
X26588Y23716*
X26533Y23606*
Y23496*
X26588Y23386*
X27137Y24210D02*
X27192Y24320D01*
Y24484*
X27137Y24594*
X27027Y24649*
X26972*
X26863Y24594*
X26808Y24484*
Y24210*
X26533*
Y24649*
X23991Y24846D02*
X24046Y24792D01*
X24101Y24682*
Y24517*
X24046Y24407*
X23991Y24352*
X23881Y24298*
X23662*
X23552Y24352*
X23497Y24407*
X23442Y24517*
Y24682*
X23497Y24792*
X23552Y24846*
X24046Y25176D02*
X24101Y25286D01*
Y25450*
X24046Y25560*
X23936Y25615*
X23881*
X23771Y25560*
X23716Y25450*
Y25176*
X23442*
Y25615*
X27772Y24684D02*
X27113D01*
Y25068*
X27168Y25178*
X27278Y25233*
X27387Y25178*
X27442Y25068*
Y24684*
Y25068D02*
X27772Y25233D01*
X27717Y25617D02*
X27772Y25727D01*
Y25837*
X27717Y25946*
X27607Y26001*
X27497Y25946*
X27442Y25837*
Y25727*
Y25837D02*
X27387Y25946D01*
X27278Y26001*
X27168Y25946*
X27113Y25837*
Y25727*
X27168Y25617*
X27607Y26440D02*
X27497Y26495D01*
X27442Y26605*
Y26715*
X27497Y26825*
X27607Y26879*
X27717Y26825*
X27772Y26715*
Y26605*
X27717Y26495*
X27607Y26440*
X27442*
X27278Y26495*
X27168Y26605*
X27113Y26715*
X16724Y26300D02*
X16065D01*
Y26684*
X16120Y26794*
X16230Y26849*
X16340Y26794*
X16395Y26684*
Y26300*
Y26684D02*
X16724Y26849D01*
X16669Y27178D02*
X16724Y27288D01*
Y27453*
X16669Y27562*
X16559Y27617*
X16504*
X16395Y27562*
X16340Y27453*
Y27178*
X16065*
Y27617*
X16724Y28166D02*
Y28386D01*
Y28276D02*
X16065D01*
X16175Y28166*
X32158Y27341D02*
X32213Y27286D01*
X32268Y27176*
Y27011*
X32213Y26901*
X32158Y26847*
X32048Y26792*
X31829*
X31719Y26847*
X31664Y26901*
X31609Y27011*
Y27176*
X31664Y27286*
X31719Y27341*
X32268Y27834D02*
X32213Y27944D01*
X32103Y28054*
X31939Y28109*
X31774*
X31664Y28054*
X31609Y27944*
Y27834*
X31664Y27725*
X31774Y27670*
X31884Y27725*
X31939Y27834*
Y27944*
X31884Y28054*
X31774Y28109*
X22134Y26844D02*
X21475D01*
Y27229*
X21530Y27338*
X21640Y27393*
X21749Y27338*
X21804Y27229*
Y26844*
Y27229D02*
X22134Y27393D01*
Y27997D02*
X21475D01*
X21914Y27723*
Y28162*
X22134Y28601D02*
X21475Y29040D01*
Y28601*
X27065Y27745D02*
X27120Y27690D01*
X27174Y27580*
Y27415*
X27120Y27305*
X27065Y27251*
X26955Y27196*
X26735*
X26626Y27251*
X26571Y27305*
X26516Y27415*
Y27580*
X26571Y27690*
X26626Y27745*
X27174Y28513D02*
Y28074D01*
X26790Y28458*
X26680Y28513*
X26571Y28458*
X26516Y28348*
Y28184*
X26571Y28074*
X27010Y28952D02*
X26900Y29007D01*
X26845Y29117*
Y29226*
X26900Y29336*
X27010Y29391*
X27120Y29336*
X27174Y29226*
Y29117*
X27120Y29007*
X27010Y28952*
X26845*
X26680Y29007*
X26571Y29117*
X26516Y29226*
D02*
D80*
X30582Y6861D02*
X30637Y6916D01*
X30692Y7026*
X30637Y7136*
X30582Y7190*
X30033*
Y7300*
Y7190D02*
Y6971D01*
X30692Y8178D02*
Y7739D01*
X30308Y8123*
X30198Y8178*
X30088Y8123*
X30033Y8014*
Y7849*
X30088Y7739*
X31548Y7113D02*
Y14644D01*
X33809*
Y7553*
X33370Y7113*
X31548*
X4833Y9320D02*
X4888Y9375D01*
X4943Y9485*
X4888Y9594*
X4833Y9649*
X4284*
Y9759*
Y9649D02*
Y9430D01*
X4943Y10308D02*
Y10528D01*
Y10418D02*
X4284D01*
X4394Y10308*
X5799Y9572D02*
Y13590D01*
X8060*
Y10012*
X7621Y9572*
X5799*
X26629Y14368D02*
X26574Y14313D01*
X26519Y14204*
X26574Y14094*
X26629Y14039*
X27178*
Y13929*
Y14039D02*
Y14258D01*
X26574Y13435D02*
X26519Y13325D01*
Y13216*
X26574Y13106*
X26684Y13051*
X26793Y13106*
X26848Y13216*
Y13325*
Y13216D02*
X26903Y13106D01*
X27013Y13051*
X27123Y13106*
X27178Y13216*
Y13325*
X27123Y13435*
X11129Y14521D02*
Y17951D01*
X15762*
Y14521*
X13705*
Y14780*
X13187*
Y14521*
X11129*
X10146Y14672D02*
X10640D01*
X10750Y14727*
X10805Y14837*
Y15057*
X10750Y15166*
X10640Y15221*
X10146*
X10750Y15606D02*
X10805Y15715D01*
Y15825*
X10750Y15935*
X10640Y15990*
X10530Y15935*
X10475Y15825*
Y15715*
Y15825D02*
X10421Y15935D01*
X10311Y15990*
X10201Y15935*
X10146Y15825*
Y15715*
X10201Y15606*
X10805Y16868D02*
Y16429D01*
X10421Y16813*
X10311Y16868*
X10201Y16813*
X10146Y16703*
Y16539*
X10201Y16429*
X26980Y15295D02*
Y7694D01*
X19759*
Y15433*
X26842*
X26980Y15295*
X21631Y21296D02*
Y21790D01*
X21576Y21900*
X21466Y21955*
X21247*
X21137Y21900*
X21082Y21790*
Y21296*
X20698Y21900D02*
X20588Y21955D01*
X20478*
X20368Y21900*
X20314Y21790*
X20368Y21681*
X20478Y21626*
X20588*
X20478D02*
X20368Y21571D01*
X20314Y21461*
X20368Y21351*
X20478Y21296*
X20588*
X20698Y21351*
X19600Y21955D02*
Y21296D01*
X19874Y21735*
X19435*
X18001Y22308D02*
Y26077D01*
X23118*
Y22308*
X20819*
Y22567*
X20300*
Y22308*
X18001*
X9268Y23279D02*
X9762D01*
X9872Y23334*
X9927Y23443*
Y23663*
X9872Y23773*
X9762Y23828*
X9268*
X9872Y24212D02*
X9927Y24322D01*
Y24432*
X9872Y24541*
X9762Y24596*
X9652Y24541*
X9597Y24432*
Y24322*
Y24432D02*
X9542Y24541D01*
X9433Y24596*
X9323Y24541*
X9268Y24432*
Y24322*
X9323Y24212*
X9927Y25145D02*
Y25365D01*
Y25255D02*
X9268D01*
X9378Y25145*
X3926Y30234D02*
Y18818D01*
X15343*
Y30234*
X3926*
X0Y0D02*
M02*
