G75*
G70*
%OFA0B0*%
%FSLAX24Y24*%
%IPPOS*%
%LPD*%
%AMOC8*
5,1,8,0,0,1.08239X$1,22.5*
%
%ADD10R,0.0710X0.0630*%
%ADD11R,0.0630X0.0710*%
%ADD12R,0.2126X0.1142*%
%ADD13R,0.0350X0.0120*%
%ADD14R,0.0709X0.0630*%
%ADD15R,0.0433X0.0394*%
%ADD16R,0.0780X0.0200*%
%ADD17R,0.1339X0.0394*%
%ADD18R,0.3780X0.2677*%
%ADD19R,0.0394X0.1339*%
%ADD20R,0.2677X0.3780*%
%ADD21R,0.0236X0.0394*%
%ADD22R,0.4252X0.4098*%
%ADD23R,0.0420X0.0850*%
%ADD24R,0.0945X0.0945*%
%ADD25R,0.0320X0.0120*%
%ADD26R,0.0120X0.0320*%
%ADD27R,0.1320X0.1320*%
%ADD28R,0.0880X0.0480*%
%ADD29R,0.0866X0.1417*%
%ADD30R,0.0394X0.0433*%
%ADD31R,0.0240X0.0810*%
%ADD32R,0.0220X0.0780*%
%ADD33R,0.1700X0.1500*%
%ADD34R,0.0630X0.0709*%
%ADD35R,0.0591X0.0512*%
%ADD36R,0.1181X0.0551*%
%ADD37R,0.0591X0.0591*%
%ADD38R,0.0760X0.2100*%
%ADD39R,0.0551X0.1181*%
%ADD40R,0.0413X0.0177*%
%ADD41R,0.1160X0.1410*%
%ADD42R,0.0870X0.0240*%
%ADD43R,0.0512X0.0591*%
%ADD44R,0.1102X0.1496*%
D10*
X004100Y002940D03*
X004100Y004060D03*
X004100Y004940D03*
X004100Y006060D03*
X004100Y006940D03*
X004100Y008060D03*
X006350Y008060D03*
X006350Y006940D03*
X006350Y006060D03*
X006350Y004940D03*
X006350Y004060D03*
X006350Y002940D03*
X011950Y012590D03*
X011950Y013710D03*
X013600Y013710D03*
X013600Y012590D03*
X017600Y016440D03*
X017600Y017560D03*
X017850Y022440D03*
X017850Y023560D03*
X026550Y020360D03*
X026550Y019240D03*
X027100Y010560D03*
X027100Y009440D03*
X027100Y008060D03*
X027100Y006940D03*
X029100Y006940D03*
X029100Y008060D03*
X029100Y009440D03*
X029100Y010560D03*
X031600Y010560D03*
X031600Y009440D03*
X031600Y008060D03*
X031600Y006940D03*
X033600Y006940D03*
X033600Y008060D03*
X033600Y009440D03*
X033600Y010560D03*
X005900Y026440D03*
X005900Y027560D03*
D11*
X010540Y025000D03*
X011660Y025000D03*
X011660Y023500D03*
X010540Y023500D03*
X010090Y022000D03*
X011210Y022000D03*
X015040Y024000D03*
X016160Y024000D03*
X018540Y021500D03*
X019660Y021500D03*
X019660Y018500D03*
X018540Y018500D03*
X015660Y016500D03*
X014540Y016500D03*
X023790Y016500D03*
X024910Y016500D03*
X025160Y018500D03*
X024040Y018500D03*
X024040Y014500D03*
X025160Y014500D03*
X025160Y012500D03*
X024040Y012500D03*
X019660Y007500D03*
X018540Y007500D03*
X008960Y003950D03*
X007840Y003950D03*
X035040Y012500D03*
X036160Y012500D03*
X036160Y014500D03*
X035040Y014500D03*
X035040Y016500D03*
X036160Y016500D03*
X036160Y018500D03*
X035040Y018500D03*
D12*
X013000Y027000D03*
X013000Y030819D03*
X003000Y022000D03*
X003000Y018181D03*
D13*
X004391Y011378D03*
X004391Y011181D03*
X004391Y010984D03*
X004391Y010787D03*
X004391Y010591D03*
X004391Y010394D03*
X004391Y010197D03*
X004391Y010000D03*
X006100Y010000D03*
X006100Y010197D03*
X006100Y010394D03*
X006100Y010591D03*
X006100Y010787D03*
X006100Y010984D03*
X006100Y011181D03*
X006100Y011378D03*
D14*
X001550Y011651D03*
X001550Y010549D03*
X026100Y028449D03*
X026100Y029551D03*
D15*
X011785Y014800D03*
X011115Y014800D03*
X004085Y012200D03*
X003415Y012200D03*
D16*
X018630Y010250D03*
X018630Y009750D03*
X018630Y009250D03*
X018630Y008750D03*
X020570Y008750D03*
X020570Y009250D03*
X020570Y009750D03*
X020570Y010250D03*
D17*
X007698Y014000D03*
X007698Y016000D03*
D18*
X003722Y015000D03*
D19*
X008600Y011098D03*
X010600Y011098D03*
D20*
X009600Y007122D03*
D21*
X010100Y012469D03*
X010100Y013531D03*
X012100Y016469D03*
X012100Y017531D03*
D22*
X003100Y029500D03*
D23*
X003100Y026220D03*
X002430Y026220D03*
X001760Y026220D03*
X003770Y026220D03*
X004440Y026220D03*
D24*
X006734Y024500D03*
X008466Y024500D03*
D25*
X029620Y015190D03*
X029620Y014990D03*
X029620Y014800D03*
X029620Y014600D03*
X029620Y014400D03*
X029620Y014200D03*
X029620Y014010D03*
X029620Y013810D03*
X031580Y013810D03*
X031580Y014010D03*
X031580Y014200D03*
X031580Y014400D03*
X031580Y014600D03*
X031580Y014800D03*
X031580Y014990D03*
X031580Y015190D03*
D26*
X031290Y015480D03*
X031090Y015480D03*
X030900Y015480D03*
X030700Y015480D03*
X030500Y015480D03*
X030300Y015480D03*
X030110Y015480D03*
X029910Y015480D03*
X029910Y013520D03*
X030110Y013520D03*
X030300Y013520D03*
X030500Y013520D03*
X030700Y013520D03*
X030900Y013520D03*
X031090Y013520D03*
X031290Y013520D03*
D27*
X030600Y014480D03*
D28*
X024320Y021090D03*
X024320Y022000D03*
X024320Y022910D03*
D29*
X021880Y022000D03*
D30*
X020900Y019835D03*
X020900Y019165D03*
X026050Y017035D03*
X026900Y016915D03*
X026900Y017585D03*
X026050Y016365D03*
X033100Y021165D03*
X033100Y021835D03*
D31*
X032100Y020000D03*
X031600Y020000D03*
X031100Y020000D03*
X030600Y020000D03*
X030100Y020000D03*
X029600Y020000D03*
X029100Y020000D03*
X028600Y020000D03*
X028600Y018110D03*
X029100Y018110D03*
X029600Y018110D03*
X030100Y018110D03*
X030600Y018110D03*
X031100Y018110D03*
X031600Y018110D03*
X032100Y018110D03*
D32*
X031850Y025650D03*
X031350Y025650D03*
X030850Y025650D03*
X030350Y025650D03*
X029850Y025650D03*
X029350Y025650D03*
X028850Y025650D03*
X028350Y025650D03*
X027850Y025650D03*
X027350Y025650D03*
X027350Y029350D03*
X027850Y029350D03*
X028350Y029350D03*
X028850Y029350D03*
X029350Y029350D03*
X029850Y029350D03*
X030350Y029350D03*
X030850Y029350D03*
X031350Y029350D03*
X031850Y029350D03*
D33*
X029600Y027500D03*
D34*
X029151Y024000D03*
X028049Y024000D03*
X034549Y024500D03*
X035651Y024500D03*
X035651Y025500D03*
X034549Y025500D03*
D35*
X025600Y023835D03*
X025600Y023165D03*
X022350Y019835D03*
X022350Y019165D03*
X020600Y021165D03*
X020600Y021835D03*
D36*
X021045Y024000D03*
X019155Y024000D03*
X031655Y023500D03*
X033545Y023500D03*
X034155Y028000D03*
X036045Y028000D03*
X035655Y010100D03*
X037545Y010100D03*
X037545Y007450D03*
X035655Y007450D03*
X025545Y007250D03*
X023655Y007250D03*
X023655Y009900D03*
X025545Y009900D03*
X003395Y024200D03*
X001505Y024200D03*
D37*
X005900Y028811D03*
X005900Y030189D03*
D38*
X027600Y015900D03*
X027600Y012100D03*
D39*
X016600Y012055D03*
X016600Y013945D03*
X008600Y027555D03*
X008600Y029445D03*
D40*
X014507Y021396D03*
X014507Y021140D03*
X014507Y020884D03*
X014507Y020628D03*
X014507Y020372D03*
X014507Y020116D03*
X014507Y019860D03*
X014507Y019604D03*
X016693Y019604D03*
X016693Y019860D03*
X016693Y020116D03*
X016693Y020372D03*
X016693Y020628D03*
X016693Y020884D03*
X016693Y021140D03*
X016693Y021396D03*
D41*
X015600Y020500D03*
D42*
X008130Y019250D03*
X008130Y018750D03*
X008130Y018250D03*
X008130Y017750D03*
X006070Y017750D03*
X006070Y018250D03*
X006070Y018750D03*
X006070Y019250D03*
D43*
X011715Y018600D03*
X012385Y018600D03*
X015265Y022500D03*
X015935Y022500D03*
X017765Y019500D03*
X018435Y019500D03*
D44*
X009057Y021000D03*
X006143Y021000D03*
M02*
