G75*
G70*
%OFA0B0*%
%FSLAX24Y24*%
%IPPOS*%
%LPD*%
%AMOC8*
5,1,8,0,0,1.08239X$1,22.5*
%
%ADD10C,0.0560*%
%ADD11C,0.1306*%
%ADD12R,0.0827X0.0827*%
%ADD13C,0.0768*%
%ADD14C,0.0562*%
%ADD15C,0.0550*%
%ADD16C,0.0860*%
%ADD17C,0.0945*%
%ADD18C,0.1660*%
%ADD19C,0.1502*%
%ADD20C,0.1004*%
%ADD21R,0.0396X0.0396*%
%ADD22C,0.0120*%
%ADD23OC8,0.0396*%
%ADD24C,0.0500*%
%ADD25C,0.0160*%
%ADD26C,0.0660*%
%ADD27C,0.0400*%
%ADD28C,0.0240*%
%ADD29C,0.0560*%
%ADD30C,0.0320*%
%ADD31C,0.0100*%
D10*
X020037Y014508D03*
X020037Y015492D03*
X021297Y015492D03*
X021297Y014508D03*
X039100Y014500D03*
X040100Y014000D03*
X039100Y013500D03*
X040100Y013000D03*
X039100Y012500D03*
X040100Y012000D03*
X039100Y011500D03*
X040100Y011000D03*
X041100Y007500D03*
X042100Y007500D03*
X043100Y007500D03*
X044100Y007500D03*
X043600Y006500D03*
X042600Y006500D03*
X041600Y006500D03*
X040600Y006500D03*
D11*
X021100Y012630D03*
X021100Y017370D03*
D12*
X022017Y026673D03*
X022017Y028327D03*
X024183Y028327D03*
X024183Y026673D03*
D13*
X016600Y010500D03*
X013600Y010500D03*
D14*
X025309Y004598D03*
X026293Y004598D03*
X027080Y004598D03*
X028065Y004598D03*
X028065Y003567D03*
X027080Y003567D03*
X026293Y003567D03*
X025309Y003567D03*
X032309Y003567D03*
X033293Y003567D03*
X034080Y003567D03*
X035065Y003567D03*
X035065Y004598D03*
X034080Y004598D03*
X033293Y004598D03*
X032309Y004598D03*
D15*
X037600Y029500D03*
X038600Y029500D03*
X042100Y029500D03*
X043100Y029500D03*
D16*
X042631Y026469D03*
X042631Y025484D03*
X044600Y024500D03*
X042631Y023516D03*
X042631Y022531D03*
D17*
X043801Y015843D03*
X043801Y009657D03*
X045443Y002799D03*
X039257Y002799D03*
D18*
X020100Y005854D03*
D19*
X021990Y004732D03*
X020100Y003394D03*
D20*
X041598Y018720D02*
X042602Y018720D01*
X042602Y020280D02*
X041598Y020280D01*
X018602Y027441D02*
X017598Y027441D01*
X017598Y029000D02*
X018602Y029000D01*
X018602Y030559D02*
X017598Y030559D01*
D21*
X027850Y026850D03*
X030850Y027000D03*
X036100Y023000D03*
X034100Y022000D03*
X030600Y019000D03*
X030600Y017400D03*
X030100Y017100D03*
X029600Y017100D03*
X030900Y016000D03*
X031850Y015650D03*
X033100Y016000D03*
X033800Y015200D03*
X032600Y014400D03*
X033200Y013400D03*
X033100Y012500D03*
X031850Y012700D03*
X030700Y012300D03*
X030100Y012000D03*
X029100Y012600D03*
X029100Y013200D03*
X026600Y012500D03*
X027900Y008500D03*
X033100Y011500D03*
X035600Y011500D03*
X032400Y017000D03*
X027600Y017400D03*
X028600Y021000D03*
D22*
X027600Y021000D01*
X027100Y020500D01*
X027150Y020450D01*
X027150Y017150D01*
X027300Y017000D01*
X028550Y017000D01*
X029100Y016450D01*
X029100Y015350D01*
X028300Y014550D01*
X028300Y013300D01*
X029000Y012600D01*
X029100Y012600D01*
X029100Y013200D02*
X028900Y013200D01*
X028700Y013450D01*
X028650Y013500D01*
X028650Y014500D01*
X029600Y015450D01*
X029600Y016000D01*
X029350Y016250D01*
X029350Y016650D01*
X029600Y016900D01*
X029600Y017100D01*
X030100Y017100D02*
X030300Y016900D01*
X030300Y016600D01*
X030100Y016400D01*
X030100Y012000D01*
X030700Y012300D02*
X031500Y013200D01*
X031500Y018200D01*
X030600Y019000D01*
X030600Y019700D02*
X030600Y021000D01*
X031100Y021500D02*
X033100Y021500D01*
X037100Y017500D01*
X037100Y011500D01*
X035300Y009600D01*
X035300Y008100D01*
X034600Y006500D02*
X032600Y008500D01*
X034600Y006500D02*
X034600Y004000D01*
X034167Y003567D01*
X034080Y003567D01*
X033293Y003567D02*
X033293Y003807D01*
X032800Y004300D01*
X032800Y005200D01*
X033600Y006000D01*
X032533Y003567D02*
X033100Y003000D01*
X035600Y003000D01*
X037100Y004500D01*
X037100Y005500D01*
X032533Y003567D02*
X032309Y003567D01*
X027600Y004000D02*
X027600Y005500D01*
X027100Y006000D01*
X025800Y005700D02*
X028100Y008000D01*
X027900Y008500D02*
X026600Y009800D01*
X026600Y012500D01*
X027600Y013400D02*
X027600Y014550D01*
X026650Y014500D02*
X022600Y014500D01*
X022100Y015000D01*
X020600Y015000D01*
X020100Y014500D01*
X020045Y014500D01*
X020037Y014508D01*
X022600Y015500D02*
X023100Y015000D01*
X025100Y015000D01*
X025600Y015500D01*
X028700Y015500D01*
X029100Y014500D02*
X029800Y014500D01*
X029800Y016600D01*
X030600Y017400D02*
X030600Y017500D01*
X029100Y017500D01*
X028800Y017300D01*
X027700Y017300D01*
X027600Y017400D01*
X028100Y017700D02*
X028100Y018500D01*
X028150Y018900D02*
X029100Y018900D01*
X029100Y022000D01*
X029600Y022500D02*
X027100Y022500D01*
X023500Y018900D01*
X023500Y015400D01*
X024100Y016000D02*
X024600Y015500D01*
X024100Y016000D02*
X024100Y019000D01*
X026600Y021500D01*
X027100Y021000D02*
X027100Y022000D01*
X025600Y022000D02*
X025600Y021500D01*
X022350Y018250D01*
X021650Y018250D01*
X023100Y020000D02*
X023550Y020000D01*
X024100Y020550D01*
X026600Y018500D02*
X026600Y016400D01*
X029500Y018900D02*
X029650Y018800D01*
X030800Y018000D01*
X031100Y018000D01*
X031100Y017400D01*
X030900Y017100D02*
X030600Y017400D01*
X030900Y017100D02*
X030900Y016000D01*
X031850Y015650D02*
X031850Y012700D01*
X032300Y013100D02*
X032300Y014100D01*
X032200Y014200D01*
X032200Y016600D01*
X031900Y016900D01*
X031900Y018500D01*
X030600Y019700D01*
X029500Y018900D02*
X029100Y018900D01*
X028150Y018900D02*
X027650Y019400D01*
X029600Y020750D02*
X029600Y022500D01*
X031600Y021000D02*
X033100Y021000D01*
X036600Y017500D01*
X036600Y011500D01*
X036100Y011000D01*
X035600Y011500D02*
X033100Y011500D01*
X033100Y012500D02*
X033800Y013400D01*
X033800Y015200D01*
X033600Y014800D02*
X033600Y013500D01*
X033200Y013400D01*
X033200Y014200D02*
X033200Y014500D01*
X032700Y015000D01*
X032700Y016300D01*
X033100Y016700D01*
X033100Y020000D01*
X032400Y017000D02*
X032400Y014600D01*
X032600Y014400D01*
X033100Y015200D02*
X033600Y014800D01*
X033100Y015200D02*
X033100Y016000D01*
X028950Y012050D02*
X027800Y010700D01*
X029600Y011500D02*
X029600Y008750D01*
X025600Y008000D02*
X025600Y010500D01*
X025100Y011000D01*
X024600Y010500D02*
X023100Y010500D01*
X025800Y005700D02*
X025800Y004250D01*
X026293Y003757D01*
X026293Y003567D01*
X027080Y003567D02*
X027167Y003567D01*
X027600Y004000D01*
X010600Y020000D02*
X010450Y020150D01*
X010450Y022800D01*
X003950Y011300D02*
X003220Y010570D01*
X003220Y010120D01*
X003400Y009800D02*
X003100Y009500D01*
X003400Y009800D02*
X003800Y009800D01*
X027850Y026850D02*
X028000Y027000D01*
X030850Y027000D01*
D23*
X003100Y003000D03*
X005100Y005000D03*
X008600Y002500D03*
X005100Y009000D03*
X006100Y009400D03*
X003800Y009800D03*
X003220Y010120D03*
X003950Y011300D03*
X005100Y012000D03*
X004900Y012650D03*
X006600Y012000D03*
X007600Y011000D03*
X009100Y012500D03*
X015600Y012500D03*
X015600Y015000D03*
X021650Y018250D03*
X023100Y020000D03*
X024100Y020550D03*
X025600Y022000D03*
X026600Y021500D03*
X027100Y021000D03*
X027100Y022000D03*
X029100Y022000D03*
X030600Y021000D03*
X031100Y021500D03*
X031600Y021000D03*
X033100Y020000D03*
X029600Y020750D03*
X027650Y019400D03*
X028100Y018500D03*
X028100Y017700D03*
X026600Y018500D03*
X026600Y016400D03*
X024600Y015500D03*
X023500Y015400D03*
X022600Y015500D03*
X026650Y014500D03*
X027600Y014550D03*
X027600Y013400D03*
X029100Y014500D03*
X028700Y015500D03*
X029800Y016600D03*
X031100Y017400D03*
X029650Y018800D03*
X033200Y014200D03*
X032300Y013100D03*
X029600Y011500D03*
X028950Y012050D03*
X027800Y010700D03*
X029600Y008750D03*
X028100Y008000D03*
X027100Y006000D03*
X025600Y008000D03*
X024600Y010500D03*
X025100Y011000D03*
X023100Y010500D03*
X032600Y008500D03*
X035300Y008100D03*
X033600Y006000D03*
X037100Y005500D03*
X037600Y006000D03*
X036100Y011000D03*
X033600Y025000D03*
X027850Y030750D03*
X015350Y026050D03*
X012600Y028500D03*
X009100Y026500D03*
X009600Y025000D03*
X007600Y024500D03*
X009600Y023000D03*
X010450Y022800D03*
X011950Y022500D03*
X013450Y021500D03*
X013100Y020500D03*
X011600Y020000D03*
X010600Y020000D03*
X009100Y018000D03*
X003600Y023000D03*
X004850Y024750D03*
X005100Y025500D03*
D24*
X009600Y023000D02*
X009600Y019000D01*
X009600Y018000D01*
X009600Y013500D01*
X010100Y013000D01*
X010100Y012031D01*
X015598Y012008D01*
X017600Y012000D01*
X017600Y003500D01*
D25*
X018631Y003500D01*
X017600Y003500D02*
X013100Y003500D01*
X012100Y002500D01*
X008600Y002500D01*
X005100Y005000D02*
X005100Y009000D01*
X003100Y009500D02*
X003100Y003000D01*
X007600Y011000D02*
X009100Y012500D01*
X008750Y012650D02*
X004900Y012650D01*
X005100Y012000D02*
X006600Y012000D01*
X008750Y012650D02*
X009600Y013500D01*
X015600Y012500D02*
X015600Y012010D01*
X015598Y012008D01*
X010600Y019000D02*
X009600Y019000D01*
X010600Y019000D02*
X011600Y020000D01*
X013100Y021500D01*
X013450Y021500D01*
X013100Y020500D02*
X014100Y020500D01*
X009600Y025000D02*
X008600Y025000D01*
X008100Y025500D01*
X005100Y025500D01*
X012600Y028500D02*
X014600Y026500D01*
X024100Y023000D02*
X024100Y020500D01*
X024100Y023000D02*
X027100Y023000D01*
X033600Y025000D02*
X027850Y030750D01*
X036100Y023500D02*
X040600Y028000D01*
X041600Y028000D01*
X043100Y029500D01*
X036100Y023500D02*
X036100Y023000D01*
X034100Y022000D02*
X033850Y021750D01*
X036100Y006000D02*
X037600Y006000D01*
X036100Y006000D02*
X035065Y004965D01*
X035065Y004598D01*
D26*
X020100Y003394D02*
X017706Y003394D01*
X017600Y003500D01*
D27*
X015600Y015000D02*
X014600Y015000D01*
X014100Y015500D01*
X014100Y020500D01*
X014100Y022500D01*
X011950Y022500D01*
X013100Y024000D02*
X015150Y026050D01*
X015350Y026050D01*
X013100Y024000D02*
X014100Y023000D01*
X014100Y022500D01*
X013100Y024000D02*
X006100Y024000D01*
X004100Y022000D01*
X009100Y018000D02*
X009600Y018000D01*
D28*
X016100Y026500D02*
X019600Y023000D01*
X027100Y023000D01*
X032600Y023000D01*
X033850Y021750D01*
X035400Y020200D01*
X038400Y020200D01*
X040100Y018500D01*
X041880Y018500D01*
X042100Y018720D01*
X024183Y026673D02*
X024183Y028327D01*
X024009Y028500D01*
X023600Y028500D01*
X022600Y029500D01*
X022600Y030000D01*
X022041Y030559D01*
X018100Y030559D01*
X016100Y026500D02*
X014600Y026500D01*
X009100Y026500D01*
D29*
X004100Y022000D02*
X004100Y012000D01*
X006100Y010000D01*
X006100Y009400D01*
D30*
X004100Y022000D02*
X003600Y022500D01*
X003600Y023000D01*
X004850Y024750D02*
X007350Y024750D01*
X007600Y024500D01*
D31*
X040100Y014000D02*
X045600Y014000D01*
X045600Y007500D01*
X044600Y006500D01*
X043600Y006500D01*
X042600Y006500D02*
X042600Y008000D01*
X045100Y008000D01*
X045100Y013000D01*
X040100Y013000D01*
M02*
