G75*
G70*
%OFA0B0*%
%FSLAX24Y24*%
%IPPOS*%
%LPD*%
%AMOC8*
5,1,8,0,0,1.08239X$1,22.5*
%
%ADD10C,0.0040*%
%ADD11C,0.0050*%
%ADD12C,0.0060*%
%ADD13C,0.0030*%
%ADD14C,0.0080*%
%ADD15R,0.0300X0.0340*%
%ADD16R,0.1102X0.0354*%
%ADD17R,0.0340X0.0300*%
%ADD18R,0.0354X0.1102*%
%ADD19R,0.0433X0.0315*%
%ADD20R,0.0380X0.0660*%
%ADD21C,0.0020*%
%ADD22C,0.0000*%
%ADD23C,0.0100*%
%ADD24R,0.0128X0.0167*%
%ADD25R,0.0138X0.0138*%
%ADD26R,0.0492X0.2441*%
D10*
X013870Y011270D02*
X013870Y011730D01*
X014177Y011730D01*
X014330Y011577D02*
X014484Y011730D01*
X014484Y011270D01*
X014637Y011270D02*
X014330Y011270D01*
X014023Y011500D02*
X013870Y011500D01*
X015320Y011720D02*
X015320Y013610D01*
X015990Y014280D01*
X016226Y014280D01*
X016974Y014280D02*
X017210Y014280D01*
X017880Y013610D01*
X017880Y011720D01*
X016974Y011720D01*
X016226Y011720D02*
X015320Y011720D01*
X016974Y011839D02*
X017038Y011861D01*
X017101Y011888D01*
X017163Y011918D01*
X017222Y011951D01*
X017280Y011987D01*
X017336Y012027D01*
X017389Y012070D01*
X017440Y012115D01*
X017488Y012163D01*
X017533Y012214D01*
X017576Y012268D01*
X017615Y012324D01*
X017652Y012381D01*
X017685Y012441D01*
X017714Y012503D01*
X017740Y012566D01*
X017763Y012630D01*
X017782Y012696D01*
X017797Y012763D01*
X017808Y012830D01*
X017816Y012898D01*
X017820Y012966D01*
X017820Y013034D01*
X017816Y013102D01*
X017808Y013170D01*
X017797Y013237D01*
X017782Y013304D01*
X017763Y013370D01*
X017740Y013434D01*
X017714Y013497D01*
X017685Y013559D01*
X017652Y013619D01*
X017615Y013676D01*
X017576Y013732D01*
X017533Y013786D01*
X017488Y013837D01*
X017440Y013885D01*
X017389Y013930D01*
X017336Y013973D01*
X017280Y014013D01*
X017222Y014049D01*
X017163Y014082D01*
X017101Y014112D01*
X017038Y014139D01*
X016974Y014161D01*
X016226Y014161D02*
X016162Y014139D01*
X016099Y014112D01*
X016037Y014082D01*
X015978Y014049D01*
X015920Y014013D01*
X015864Y013973D01*
X015811Y013930D01*
X015760Y013885D01*
X015712Y013837D01*
X015667Y013786D01*
X015624Y013732D01*
X015585Y013676D01*
X015548Y013619D01*
X015515Y013559D01*
X015486Y013497D01*
X015460Y013434D01*
X015437Y013370D01*
X015418Y013304D01*
X015403Y013237D01*
X015392Y013170D01*
X015384Y013102D01*
X015380Y013034D01*
X015380Y012966D01*
X015384Y012898D01*
X015392Y012830D01*
X015403Y012763D01*
X015418Y012696D01*
X015437Y012630D01*
X015460Y012566D01*
X015486Y012503D01*
X015515Y012441D01*
X015548Y012381D01*
X015585Y012324D01*
X015624Y012268D01*
X015667Y012214D01*
X015712Y012163D01*
X015760Y012115D01*
X015811Y012070D01*
X015864Y012027D01*
X015920Y011987D01*
X015978Y011951D01*
X016037Y011918D01*
X016099Y011888D01*
X016162Y011861D01*
X016226Y011839D01*
X010317Y012685D02*
X009883Y012685D01*
X009883Y013315D01*
X010317Y013315D02*
X010317Y012685D01*
X011883Y016685D02*
X011883Y017315D01*
X012317Y017315D02*
X012317Y016685D01*
X011883Y016685D01*
X009002Y019778D02*
X006198Y019778D01*
X004980Y020599D02*
X004980Y020906D01*
X004903Y021060D02*
X004980Y021136D01*
X004980Y021290D01*
X004903Y021367D01*
X004827Y021367D01*
X004750Y021290D01*
X004750Y021213D01*
X004750Y021290D02*
X004673Y021367D01*
X004596Y021367D01*
X004520Y021290D01*
X004520Y021136D01*
X004596Y021060D01*
X004520Y020599D02*
X004980Y020599D01*
X006198Y022222D02*
X009002Y022222D01*
X008490Y023750D02*
X006710Y023750D01*
X006710Y025250D02*
X008490Y025250D01*
X008226Y027220D02*
X007990Y027220D01*
X007320Y027890D01*
X007320Y029780D01*
X008226Y029780D01*
X008974Y029780D02*
X009880Y029780D01*
X009880Y027890D01*
X009210Y027220D01*
X008974Y027220D01*
X008226Y027339D02*
X008162Y027361D01*
X008099Y027388D01*
X008037Y027418D01*
X007978Y027451D01*
X007920Y027487D01*
X007864Y027527D01*
X007811Y027570D01*
X007760Y027615D01*
X007712Y027663D01*
X007667Y027714D01*
X007624Y027768D01*
X007585Y027824D01*
X007548Y027881D01*
X007515Y027941D01*
X007486Y028003D01*
X007460Y028066D01*
X007437Y028130D01*
X007418Y028196D01*
X007403Y028263D01*
X007392Y028330D01*
X007384Y028398D01*
X007380Y028466D01*
X007380Y028534D01*
X007384Y028602D01*
X007392Y028670D01*
X007403Y028737D01*
X007418Y028804D01*
X007437Y028870D01*
X007460Y028934D01*
X007486Y028997D01*
X007515Y029059D01*
X007548Y029119D01*
X007585Y029176D01*
X007624Y029232D01*
X007667Y029286D01*
X007712Y029337D01*
X007760Y029385D01*
X007811Y029430D01*
X007864Y029473D01*
X007920Y029513D01*
X007978Y029549D01*
X008037Y029582D01*
X008099Y029612D01*
X008162Y029639D01*
X008226Y029661D01*
X008974Y029661D02*
X009038Y029639D01*
X009101Y029612D01*
X009163Y029582D01*
X009222Y029549D01*
X009280Y029513D01*
X009336Y029473D01*
X009389Y029430D01*
X009440Y029385D01*
X009488Y029337D01*
X009533Y029286D01*
X009576Y029232D01*
X009615Y029176D01*
X009652Y029119D01*
X009685Y029059D01*
X009714Y028997D01*
X009740Y028934D01*
X009763Y028870D01*
X009782Y028804D01*
X009797Y028737D01*
X009808Y028670D01*
X009816Y028602D01*
X009820Y028534D01*
X009820Y028466D01*
X009816Y028398D01*
X009808Y028330D01*
X009797Y028263D01*
X009782Y028196D01*
X009763Y028130D01*
X009740Y028066D01*
X009714Y028003D01*
X009685Y027941D01*
X009652Y027881D01*
X009615Y027824D01*
X009576Y027768D01*
X009533Y027714D01*
X009488Y027663D01*
X009440Y027615D01*
X009389Y027570D01*
X009336Y027527D01*
X009280Y027487D01*
X009222Y027451D01*
X009163Y027418D01*
X009101Y027388D01*
X009038Y027361D01*
X008974Y027339D01*
X011020Y027520D02*
X011480Y027520D01*
X011480Y027827D01*
X011480Y027980D02*
X011480Y028287D01*
X011480Y028134D02*
X011020Y028134D01*
X011173Y027980D01*
X003730Y025480D02*
X003730Y024574D01*
X003730Y023826D02*
X003730Y022920D01*
X001840Y022920D01*
X001170Y023590D01*
X001170Y023826D01*
X001170Y024574D02*
X001170Y024810D01*
X001840Y025480D01*
X003730Y025480D01*
X003611Y024574D02*
X003589Y024638D01*
X003562Y024701D01*
X003532Y024763D01*
X003499Y024822D01*
X003463Y024880D01*
X003423Y024936D01*
X003380Y024989D01*
X003335Y025040D01*
X003287Y025088D01*
X003236Y025133D01*
X003182Y025176D01*
X003126Y025215D01*
X003069Y025252D01*
X003009Y025285D01*
X002947Y025314D01*
X002884Y025340D01*
X002820Y025363D01*
X002754Y025382D01*
X002687Y025397D01*
X002620Y025408D01*
X002552Y025416D01*
X002484Y025420D01*
X002416Y025420D01*
X002348Y025416D01*
X002280Y025408D01*
X002213Y025397D01*
X002146Y025382D01*
X002080Y025363D01*
X002016Y025340D01*
X001953Y025314D01*
X001891Y025285D01*
X001831Y025252D01*
X001774Y025215D01*
X001718Y025176D01*
X001664Y025133D01*
X001613Y025088D01*
X001565Y025040D01*
X001520Y024989D01*
X001477Y024936D01*
X001437Y024880D01*
X001401Y024822D01*
X001368Y024763D01*
X001338Y024701D01*
X001311Y024638D01*
X001289Y024574D01*
X001289Y023826D02*
X001311Y023762D01*
X001338Y023699D01*
X001368Y023637D01*
X001401Y023578D01*
X001437Y023520D01*
X001477Y023464D01*
X001520Y023411D01*
X001565Y023360D01*
X001613Y023312D01*
X001664Y023267D01*
X001718Y023224D01*
X001774Y023185D01*
X001831Y023148D01*
X001891Y023115D01*
X001953Y023086D01*
X002016Y023060D01*
X002080Y023037D01*
X002146Y023018D01*
X002213Y023003D01*
X002280Y022992D01*
X002348Y022984D01*
X002416Y022980D01*
X002484Y022980D01*
X002552Y022984D01*
X002620Y022992D01*
X002687Y023003D01*
X002754Y023018D01*
X002820Y023037D01*
X002884Y023060D01*
X002947Y023086D01*
X003009Y023115D01*
X003069Y023148D01*
X003126Y023185D01*
X003182Y023224D01*
X003236Y023267D01*
X003287Y023312D01*
X003335Y023360D01*
X003380Y023411D01*
X003423Y023464D01*
X003463Y023520D01*
X003499Y023578D01*
X003532Y023637D01*
X003562Y023699D01*
X003589Y023762D01*
X003611Y023826D01*
X018820Y023626D02*
X018820Y023390D01*
X019490Y022720D01*
X021380Y022720D01*
X021380Y023626D01*
X021380Y024374D02*
X021380Y025280D01*
X019490Y025280D01*
X018820Y024610D01*
X018820Y024374D01*
X018939Y024374D02*
X018961Y024438D01*
X018988Y024501D01*
X019018Y024563D01*
X019051Y024622D01*
X019087Y024680D01*
X019127Y024736D01*
X019170Y024789D01*
X019215Y024840D01*
X019263Y024888D01*
X019314Y024933D01*
X019368Y024976D01*
X019424Y025015D01*
X019481Y025052D01*
X019541Y025085D01*
X019603Y025114D01*
X019666Y025140D01*
X019730Y025163D01*
X019796Y025182D01*
X019863Y025197D01*
X019930Y025208D01*
X019998Y025216D01*
X020066Y025220D01*
X020134Y025220D01*
X020202Y025216D01*
X020270Y025208D01*
X020337Y025197D01*
X020404Y025182D01*
X020470Y025163D01*
X020534Y025140D01*
X020597Y025114D01*
X020659Y025085D01*
X020719Y025052D01*
X020776Y025015D01*
X020832Y024976D01*
X020886Y024933D01*
X020937Y024888D01*
X020985Y024840D01*
X021030Y024789D01*
X021073Y024736D01*
X021113Y024680D01*
X021149Y024622D01*
X021182Y024563D01*
X021212Y024501D01*
X021239Y024438D01*
X021261Y024374D01*
X021261Y023626D02*
X021239Y023562D01*
X021212Y023499D01*
X021182Y023437D01*
X021149Y023378D01*
X021113Y023320D01*
X021073Y023264D01*
X021030Y023211D01*
X020985Y023160D01*
X020937Y023112D01*
X020886Y023067D01*
X020832Y023024D01*
X020776Y022985D01*
X020719Y022948D01*
X020659Y022915D01*
X020597Y022886D01*
X020534Y022860D01*
X020470Y022837D01*
X020404Y022818D01*
X020337Y022803D01*
X020270Y022792D01*
X020202Y022784D01*
X020134Y022780D01*
X020066Y022780D01*
X019998Y022784D01*
X019930Y022792D01*
X019863Y022803D01*
X019796Y022818D01*
X019730Y022837D01*
X019666Y022860D01*
X019603Y022886D01*
X019541Y022915D01*
X019481Y022948D01*
X019424Y022985D01*
X019368Y023024D01*
X019314Y023067D01*
X019263Y023112D01*
X019215Y023160D01*
X019170Y023211D01*
X019127Y023264D01*
X019087Y023320D01*
X019051Y023378D01*
X019018Y023437D01*
X018988Y023499D01*
X018961Y023562D01*
X018939Y023626D01*
X031320Y023874D02*
X031320Y024110D01*
X031990Y024780D01*
X033880Y024780D01*
X033880Y023874D01*
X033880Y023126D02*
X033880Y022220D01*
X031990Y022220D01*
X031320Y022890D01*
X031320Y023126D01*
X031439Y023874D02*
X031461Y023938D01*
X031488Y024001D01*
X031518Y024063D01*
X031551Y024122D01*
X031587Y024180D01*
X031627Y024236D01*
X031670Y024289D01*
X031715Y024340D01*
X031763Y024388D01*
X031814Y024433D01*
X031868Y024476D01*
X031924Y024515D01*
X031981Y024552D01*
X032041Y024585D01*
X032103Y024614D01*
X032166Y024640D01*
X032230Y024663D01*
X032296Y024682D01*
X032363Y024697D01*
X032430Y024708D01*
X032498Y024716D01*
X032566Y024720D01*
X032634Y024720D01*
X032702Y024716D01*
X032770Y024708D01*
X032837Y024697D01*
X032904Y024682D01*
X032970Y024663D01*
X033034Y024640D01*
X033097Y024614D01*
X033159Y024585D01*
X033219Y024552D01*
X033276Y024515D01*
X033332Y024476D01*
X033386Y024433D01*
X033437Y024388D01*
X033485Y024340D01*
X033530Y024289D01*
X033573Y024236D01*
X033613Y024180D01*
X033649Y024122D01*
X033682Y024063D01*
X033712Y024001D01*
X033739Y023938D01*
X033761Y023874D01*
X033761Y023126D02*
X033739Y023062D01*
X033712Y022999D01*
X033682Y022937D01*
X033649Y022878D01*
X033613Y022820D01*
X033573Y022764D01*
X033530Y022711D01*
X033485Y022660D01*
X033437Y022612D01*
X033386Y022567D01*
X033332Y022524D01*
X033276Y022485D01*
X033219Y022448D01*
X033159Y022415D01*
X033097Y022386D01*
X033034Y022360D01*
X032970Y022337D01*
X032904Y022318D01*
X032837Y022303D01*
X032770Y022292D01*
X032702Y022284D01*
X032634Y022280D01*
X032566Y022280D01*
X032498Y022284D01*
X032430Y022292D01*
X032363Y022303D01*
X032296Y022318D01*
X032230Y022337D01*
X032166Y022360D01*
X032103Y022386D01*
X032041Y022415D01*
X031981Y022448D01*
X031924Y022485D01*
X031868Y022524D01*
X031814Y022567D01*
X031763Y022612D01*
X031715Y022660D01*
X031670Y022711D01*
X031627Y022764D01*
X031587Y022820D01*
X031551Y022878D01*
X031518Y022937D01*
X031488Y022999D01*
X031461Y023062D01*
X031439Y023126D01*
X034490Y026720D02*
X033820Y027390D01*
X033820Y027626D01*
X033820Y028374D02*
X033820Y028610D01*
X034490Y029280D01*
X036380Y029280D01*
X036380Y028374D01*
X036380Y027626D02*
X036380Y026720D01*
X034490Y026720D01*
X033939Y028374D02*
X033961Y028438D01*
X033988Y028501D01*
X034018Y028563D01*
X034051Y028622D01*
X034087Y028680D01*
X034127Y028736D01*
X034170Y028789D01*
X034215Y028840D01*
X034263Y028888D01*
X034314Y028933D01*
X034368Y028976D01*
X034424Y029015D01*
X034481Y029052D01*
X034541Y029085D01*
X034603Y029114D01*
X034666Y029140D01*
X034730Y029163D01*
X034796Y029182D01*
X034863Y029197D01*
X034930Y029208D01*
X034998Y029216D01*
X035066Y029220D01*
X035134Y029220D01*
X035202Y029216D01*
X035270Y029208D01*
X035337Y029197D01*
X035404Y029182D01*
X035470Y029163D01*
X035534Y029140D01*
X035597Y029114D01*
X035659Y029085D01*
X035719Y029052D01*
X035776Y029015D01*
X035832Y028976D01*
X035886Y028933D01*
X035937Y028888D01*
X035985Y028840D01*
X036030Y028789D01*
X036073Y028736D01*
X036113Y028680D01*
X036149Y028622D01*
X036182Y028563D01*
X036212Y028501D01*
X036239Y028438D01*
X036261Y028374D01*
X036261Y027626D02*
X036239Y027562D01*
X036212Y027499D01*
X036182Y027437D01*
X036149Y027378D01*
X036113Y027320D01*
X036073Y027264D01*
X036030Y027211D01*
X035985Y027160D01*
X035937Y027112D01*
X035886Y027067D01*
X035832Y027024D01*
X035776Y026985D01*
X035719Y026948D01*
X035659Y026915D01*
X035597Y026886D01*
X035534Y026860D01*
X035470Y026837D01*
X035404Y026818D01*
X035337Y026803D01*
X035270Y026792D01*
X035202Y026784D01*
X035134Y026780D01*
X035066Y026780D01*
X034998Y026784D01*
X034930Y026792D01*
X034863Y026803D01*
X034796Y026818D01*
X034730Y026837D01*
X034666Y026860D01*
X034603Y026886D01*
X034541Y026915D01*
X034481Y026948D01*
X034424Y026985D01*
X034368Y027024D01*
X034314Y027067D01*
X034263Y027112D01*
X034215Y027160D01*
X034170Y027211D01*
X034127Y027264D01*
X034087Y027320D01*
X034051Y027378D01*
X034018Y027437D01*
X033988Y027499D01*
X033961Y027562D01*
X033939Y027626D01*
X035990Y011380D02*
X037880Y011380D01*
X037880Y010474D01*
X037880Y009726D02*
X037880Y008820D01*
X035990Y008820D01*
X035320Y009490D01*
X035320Y009726D01*
X035990Y008730D02*
X037880Y008730D01*
X037880Y007824D01*
X037880Y007076D02*
X037880Y006170D01*
X035990Y006170D01*
X035320Y006840D01*
X035320Y007076D01*
X035320Y007824D02*
X035320Y008060D01*
X035990Y008730D01*
X035439Y010474D02*
X035461Y010538D01*
X035488Y010601D01*
X035518Y010663D01*
X035551Y010722D01*
X035587Y010780D01*
X035627Y010836D01*
X035670Y010889D01*
X035715Y010940D01*
X035763Y010988D01*
X035814Y011033D01*
X035868Y011076D01*
X035924Y011115D01*
X035981Y011152D01*
X036041Y011185D01*
X036103Y011214D01*
X036166Y011240D01*
X036230Y011263D01*
X036296Y011282D01*
X036363Y011297D01*
X036430Y011308D01*
X036498Y011316D01*
X036566Y011320D01*
X036634Y011320D01*
X036702Y011316D01*
X036770Y011308D01*
X036837Y011297D01*
X036904Y011282D01*
X036970Y011263D01*
X037034Y011240D01*
X037097Y011214D01*
X037159Y011185D01*
X037219Y011152D01*
X037276Y011115D01*
X037332Y011076D01*
X037386Y011033D01*
X037437Y010988D01*
X037485Y010940D01*
X037530Y010889D01*
X037573Y010836D01*
X037613Y010780D01*
X037649Y010722D01*
X037682Y010663D01*
X037712Y010601D01*
X037739Y010538D01*
X037761Y010474D01*
X037761Y009726D02*
X037739Y009662D01*
X037712Y009599D01*
X037682Y009537D01*
X037649Y009478D01*
X037613Y009420D01*
X037573Y009364D01*
X037530Y009311D01*
X037485Y009260D01*
X037437Y009212D01*
X037386Y009167D01*
X037332Y009124D01*
X037276Y009085D01*
X037219Y009048D01*
X037159Y009015D01*
X037097Y008986D01*
X037034Y008960D01*
X036970Y008937D01*
X036904Y008918D01*
X036837Y008903D01*
X036770Y008892D01*
X036702Y008884D01*
X036634Y008880D01*
X036566Y008880D01*
X036498Y008884D01*
X036430Y008892D01*
X036363Y008903D01*
X036296Y008918D01*
X036230Y008937D01*
X036166Y008960D01*
X036103Y008986D01*
X036041Y009015D01*
X035981Y009048D01*
X035924Y009085D01*
X035868Y009124D01*
X035814Y009167D01*
X035763Y009212D01*
X035715Y009260D01*
X035670Y009311D01*
X035627Y009364D01*
X035587Y009420D01*
X035551Y009478D01*
X035518Y009537D01*
X035488Y009599D01*
X035461Y009662D01*
X035439Y009726D01*
X035320Y010474D02*
X035320Y010710D01*
X035990Y011380D01*
X035439Y007076D02*
X035461Y007012D01*
X035488Y006949D01*
X035518Y006887D01*
X035551Y006828D01*
X035587Y006770D01*
X035627Y006714D01*
X035670Y006661D01*
X035715Y006610D01*
X035763Y006562D01*
X035814Y006517D01*
X035868Y006474D01*
X035924Y006435D01*
X035981Y006398D01*
X036041Y006365D01*
X036103Y006336D01*
X036166Y006310D01*
X036230Y006287D01*
X036296Y006268D01*
X036363Y006253D01*
X036430Y006242D01*
X036498Y006234D01*
X036566Y006230D01*
X036634Y006230D01*
X036702Y006234D01*
X036770Y006242D01*
X036837Y006253D01*
X036904Y006268D01*
X036970Y006287D01*
X037034Y006310D01*
X037097Y006336D01*
X037159Y006365D01*
X037219Y006398D01*
X037276Y006435D01*
X037332Y006474D01*
X037386Y006517D01*
X037437Y006562D01*
X037485Y006610D01*
X037530Y006661D01*
X037573Y006714D01*
X037613Y006770D01*
X037649Y006828D01*
X037682Y006887D01*
X037712Y006949D01*
X037739Y007012D01*
X037761Y007076D01*
X037761Y007824D02*
X037739Y007888D01*
X037712Y007951D01*
X037682Y008013D01*
X037649Y008072D01*
X037613Y008130D01*
X037573Y008186D01*
X037530Y008239D01*
X037485Y008290D01*
X037437Y008338D01*
X037386Y008383D01*
X037332Y008426D01*
X037276Y008465D01*
X037219Y008502D01*
X037159Y008535D01*
X037097Y008564D01*
X037034Y008590D01*
X036970Y008613D01*
X036904Y008632D01*
X036837Y008647D01*
X036770Y008658D01*
X036702Y008666D01*
X036634Y008670D01*
X036566Y008670D01*
X036498Y008666D01*
X036430Y008658D01*
X036363Y008647D01*
X036296Y008632D01*
X036230Y008613D01*
X036166Y008590D01*
X036103Y008564D01*
X036041Y008535D01*
X035981Y008502D01*
X035924Y008465D01*
X035868Y008426D01*
X035814Y008383D01*
X035763Y008338D01*
X035715Y008290D01*
X035670Y008239D01*
X035627Y008186D01*
X035587Y008130D01*
X035551Y008072D01*
X035518Y008013D01*
X035488Y007951D01*
X035461Y007888D01*
X035439Y007824D01*
X034231Y002980D02*
X034308Y002904D01*
X034308Y002827D01*
X034231Y002750D01*
X034308Y002673D01*
X034308Y002597D01*
X034231Y002520D01*
X034078Y002520D01*
X034001Y002597D01*
X033848Y002597D02*
X033771Y002520D01*
X033541Y002520D01*
X033541Y002980D01*
X033771Y002980D01*
X033848Y002904D01*
X033848Y002827D01*
X033771Y002750D01*
X033541Y002750D01*
X033387Y002673D02*
X033387Y002597D01*
X033311Y002520D01*
X033157Y002520D01*
X033080Y002597D01*
X032927Y002597D02*
X032927Y002980D01*
X033080Y002904D02*
X033080Y002827D01*
X033157Y002750D01*
X033311Y002750D01*
X033387Y002673D01*
X033387Y002904D02*
X033311Y002980D01*
X033157Y002980D01*
X033080Y002904D01*
X032927Y002597D02*
X032850Y002520D01*
X032697Y002520D01*
X032620Y002597D01*
X032620Y002980D01*
X033771Y002750D02*
X033848Y002673D01*
X033848Y002597D01*
X034155Y002750D02*
X034231Y002750D01*
X034231Y002980D02*
X034078Y002980D01*
X034001Y002904D01*
X027308Y002904D02*
X027231Y002980D01*
X027078Y002980D01*
X027001Y002904D01*
X026848Y002904D02*
X026848Y002827D01*
X026771Y002750D01*
X026541Y002750D01*
X026387Y002673D02*
X026387Y002597D01*
X026311Y002520D01*
X026157Y002520D01*
X026080Y002597D01*
X025927Y002597D02*
X025927Y002980D01*
X026080Y002904D02*
X026080Y002827D01*
X026157Y002750D01*
X026311Y002750D01*
X026387Y002673D01*
X026541Y002520D02*
X026541Y002980D01*
X026771Y002980D01*
X026848Y002904D01*
X026771Y002750D02*
X026848Y002673D01*
X026848Y002597D01*
X026771Y002520D01*
X026541Y002520D01*
X026387Y002904D02*
X026311Y002980D01*
X026157Y002980D01*
X026080Y002904D01*
X025927Y002597D02*
X025850Y002520D01*
X025697Y002520D01*
X025620Y002597D01*
X025620Y002980D01*
X027001Y002520D02*
X027308Y002827D01*
X027308Y002904D01*
X027308Y002520D02*
X027001Y002520D01*
X025210Y005970D02*
X023320Y005970D01*
X023320Y006876D01*
X023320Y007624D02*
X023320Y008530D01*
X025210Y008530D01*
X025880Y007860D01*
X025880Y007624D01*
X025880Y006876D02*
X025880Y006640D01*
X025210Y005970D01*
X025761Y007624D02*
X025739Y007688D01*
X025712Y007751D01*
X025682Y007813D01*
X025649Y007872D01*
X025613Y007930D01*
X025573Y007986D01*
X025530Y008039D01*
X025485Y008090D01*
X025437Y008138D01*
X025386Y008183D01*
X025332Y008226D01*
X025276Y008265D01*
X025219Y008302D01*
X025159Y008335D01*
X025097Y008364D01*
X025034Y008390D01*
X024970Y008413D01*
X024904Y008432D01*
X024837Y008447D01*
X024770Y008458D01*
X024702Y008466D01*
X024634Y008470D01*
X024566Y008470D01*
X024498Y008466D01*
X024430Y008458D01*
X024363Y008447D01*
X024296Y008432D01*
X024230Y008413D01*
X024166Y008390D01*
X024103Y008364D01*
X024041Y008335D01*
X023981Y008302D01*
X023924Y008265D01*
X023868Y008226D01*
X023814Y008183D01*
X023763Y008138D01*
X023715Y008090D01*
X023670Y008039D01*
X023627Y007986D01*
X023587Y007930D01*
X023551Y007872D01*
X023518Y007813D01*
X023488Y007751D01*
X023461Y007688D01*
X023439Y007624D01*
X023320Y008620D02*
X023320Y009526D01*
X023320Y010274D02*
X023320Y011180D01*
X025210Y011180D01*
X025880Y010510D01*
X025880Y010274D01*
X025880Y009526D02*
X025880Y009290D01*
X025210Y008620D01*
X023320Y008620D01*
X023439Y010274D02*
X023461Y010338D01*
X023488Y010401D01*
X023518Y010463D01*
X023551Y010522D01*
X023587Y010580D01*
X023627Y010636D01*
X023670Y010689D01*
X023715Y010740D01*
X023763Y010788D01*
X023814Y010833D01*
X023868Y010876D01*
X023924Y010915D01*
X023981Y010952D01*
X024041Y010985D01*
X024103Y011014D01*
X024166Y011040D01*
X024230Y011063D01*
X024296Y011082D01*
X024363Y011097D01*
X024430Y011108D01*
X024498Y011116D01*
X024566Y011120D01*
X024634Y011120D01*
X024702Y011116D01*
X024770Y011108D01*
X024837Y011097D01*
X024904Y011082D01*
X024970Y011063D01*
X025034Y011040D01*
X025097Y011014D01*
X025159Y010985D01*
X025219Y010952D01*
X025276Y010915D01*
X025332Y010876D01*
X025386Y010833D01*
X025437Y010788D01*
X025485Y010740D01*
X025530Y010689D01*
X025573Y010636D01*
X025613Y010580D01*
X025649Y010522D01*
X025682Y010463D01*
X025712Y010401D01*
X025739Y010338D01*
X025761Y010274D01*
X025761Y009526D02*
X025739Y009462D01*
X025712Y009399D01*
X025682Y009337D01*
X025649Y009278D01*
X025613Y009220D01*
X025573Y009164D01*
X025530Y009111D01*
X025485Y009060D01*
X025437Y009012D01*
X025386Y008967D01*
X025332Y008924D01*
X025276Y008885D01*
X025219Y008848D01*
X025159Y008815D01*
X025097Y008786D01*
X025034Y008760D01*
X024970Y008737D01*
X024904Y008718D01*
X024837Y008703D01*
X024770Y008692D01*
X024702Y008684D01*
X024634Y008680D01*
X024566Y008680D01*
X024498Y008684D01*
X024430Y008692D01*
X024363Y008703D01*
X024296Y008718D01*
X024230Y008737D01*
X024166Y008760D01*
X024103Y008786D01*
X024041Y008815D01*
X023981Y008848D01*
X023924Y008885D01*
X023868Y008924D01*
X023814Y008967D01*
X023763Y009012D01*
X023715Y009060D01*
X023670Y009111D01*
X023627Y009164D01*
X023587Y009220D01*
X023551Y009278D01*
X023518Y009337D01*
X023488Y009399D01*
X023461Y009462D01*
X023439Y009526D01*
X023439Y006876D02*
X023461Y006812D01*
X023488Y006749D01*
X023518Y006687D01*
X023551Y006628D01*
X023587Y006570D01*
X023627Y006514D01*
X023670Y006461D01*
X023715Y006410D01*
X023763Y006362D01*
X023814Y006317D01*
X023868Y006274D01*
X023924Y006235D01*
X023981Y006198D01*
X024041Y006165D01*
X024103Y006136D01*
X024166Y006110D01*
X024230Y006087D01*
X024296Y006068D01*
X024363Y006053D01*
X024430Y006042D01*
X024498Y006034D01*
X024566Y006030D01*
X024634Y006030D01*
X024702Y006034D01*
X024770Y006042D01*
X024837Y006053D01*
X024904Y006068D01*
X024970Y006087D01*
X025034Y006110D01*
X025097Y006136D01*
X025159Y006165D01*
X025219Y006198D01*
X025276Y006235D01*
X025332Y006274D01*
X025386Y006317D01*
X025437Y006362D01*
X025485Y006410D01*
X025530Y006461D01*
X025573Y006514D01*
X025613Y006570D01*
X025649Y006628D01*
X025682Y006687D01*
X025712Y006749D01*
X025739Y006812D01*
X025761Y006876D01*
D11*
X005461Y017571D02*
X005461Y022610D01*
X000539Y022610D01*
X000539Y017571D01*
X005461Y017571D01*
X010539Y026390D02*
X015461Y026390D01*
X015461Y031429D01*
X010539Y031429D01*
X010539Y026390D01*
D12*
X014859Y021490D02*
X014859Y019510D01*
X016341Y019510D01*
X016341Y021490D01*
X014859Y021490D01*
X016530Y019151D02*
X016532Y019177D01*
X016538Y019203D01*
X016547Y019227D01*
X016560Y019250D01*
X016576Y019271D01*
X016595Y019289D01*
X016616Y019305D01*
X016640Y019317D01*
X016664Y019325D01*
X016690Y019330D01*
X016717Y019331D01*
X016743Y019328D01*
X016768Y019321D01*
X016792Y019311D01*
X016815Y019297D01*
X016835Y019281D01*
X016852Y019261D01*
X016867Y019239D01*
X016878Y019215D01*
X016886Y019190D01*
X016890Y019164D01*
X016890Y019138D01*
X016886Y019112D01*
X016878Y019087D01*
X016867Y019063D01*
X016852Y019041D01*
X016835Y019021D01*
X016815Y019005D01*
X016792Y018991D01*
X016768Y018981D01*
X016743Y018974D01*
X016717Y018971D01*
X016690Y018972D01*
X016664Y018977D01*
X016640Y018985D01*
X016616Y018997D01*
X016595Y019013D01*
X016576Y019031D01*
X016560Y019052D01*
X016547Y019075D01*
X016538Y019099D01*
X016532Y019125D01*
X016530Y019151D01*
X007810Y019430D02*
X006390Y019430D01*
X006390Y017570D02*
X007810Y017570D01*
X005844Y011492D02*
X004624Y011492D01*
X004624Y009886D02*
X005114Y009886D01*
X005354Y009886D01*
X005844Y009886D01*
X005354Y009886D02*
X005352Y009907D01*
X005347Y009927D01*
X005338Y009946D01*
X005326Y009963D01*
X005311Y009978D01*
X005294Y009990D01*
X005275Y009999D01*
X005255Y010004D01*
X005234Y010006D01*
X005213Y010004D01*
X005193Y009999D01*
X005174Y009990D01*
X005157Y009978D01*
X005142Y009963D01*
X005130Y009946D01*
X005121Y009927D01*
X005116Y009907D01*
X005114Y009886D01*
X019040Y010480D02*
X019480Y010480D01*
X019720Y010480D01*
X020160Y010480D01*
X019720Y010480D02*
X019718Y010459D01*
X019713Y010439D01*
X019704Y010420D01*
X019692Y010403D01*
X019677Y010388D01*
X019660Y010376D01*
X019641Y010367D01*
X019621Y010362D01*
X019600Y010360D01*
X019579Y010362D01*
X019559Y010367D01*
X019540Y010376D01*
X019523Y010388D01*
X019508Y010403D01*
X019496Y010420D01*
X019487Y010439D01*
X019482Y010459D01*
X019480Y010480D01*
X019040Y008520D02*
X020160Y008520D01*
X026650Y011850D02*
X026650Y016150D01*
X026652Y016167D01*
X026656Y016184D01*
X026663Y016200D01*
X026673Y016214D01*
X026686Y016227D01*
X026700Y016237D01*
X026716Y016244D01*
X026733Y016248D01*
X026750Y016250D01*
X027150Y016250D01*
X028050Y016250D02*
X028450Y016250D01*
X028467Y016248D01*
X028484Y016244D01*
X028500Y016237D01*
X028514Y016227D01*
X028527Y016214D01*
X028537Y016200D01*
X028544Y016184D01*
X028548Y016167D01*
X028550Y016150D01*
X028550Y011850D01*
X028548Y011833D01*
X028544Y011816D01*
X028537Y011800D01*
X028527Y011786D01*
X028514Y011773D01*
X028500Y011763D01*
X028484Y011756D01*
X028467Y011752D01*
X028450Y011750D01*
X028050Y011750D01*
X027150Y011750D02*
X026750Y011750D01*
X026733Y011752D01*
X026716Y011756D01*
X026700Y011763D01*
X026686Y011773D01*
X026673Y011786D01*
X026663Y011800D01*
X026656Y011816D01*
X026652Y011833D01*
X026650Y011850D01*
X027350Y013750D02*
X027600Y013750D01*
X027850Y013750D01*
X027850Y013900D02*
X027850Y014100D01*
X027350Y014100D01*
X027350Y013900D01*
X027850Y013900D01*
X027850Y014250D02*
X027600Y014250D01*
X027350Y014250D01*
X029590Y013620D02*
X029590Y013490D01*
X029720Y013490D01*
X030110Y013260D02*
X030110Y012850D01*
X031480Y013490D02*
X031610Y013490D01*
X031610Y013620D01*
X031850Y014400D02*
X032260Y014400D01*
X031610Y015380D02*
X031610Y015510D01*
X031480Y015510D01*
X030310Y015760D02*
X030310Y016160D01*
X029720Y015510D02*
X029590Y015510D01*
X029590Y015380D01*
X028380Y018600D02*
X028380Y018940D01*
X028380Y019180D01*
X028380Y019510D01*
X032320Y019510D02*
X032320Y018600D01*
X031870Y024680D02*
X031870Y025100D01*
X032150Y026010D02*
X032150Y028990D01*
X027360Y029900D02*
X027360Y030320D01*
X027050Y028990D02*
X027050Y027620D01*
X027050Y027380D01*
X027050Y026010D01*
X027050Y027380D02*
X027071Y027382D01*
X027091Y027387D01*
X027110Y027396D01*
X027127Y027408D01*
X027142Y027423D01*
X027154Y027440D01*
X027163Y027459D01*
X027168Y027479D01*
X027170Y027500D01*
X027168Y027521D01*
X027163Y027541D01*
X027154Y027560D01*
X027142Y027577D01*
X027127Y027592D01*
X027110Y027604D01*
X027091Y027613D01*
X027071Y027618D01*
X027050Y027620D01*
D13*
X027087Y025659D02*
X026773Y025345D01*
X026930Y025345D02*
X026930Y025659D01*
X026773Y025659D02*
X027087Y025345D01*
X027087Y025502D02*
X026773Y025502D01*
X028023Y018209D02*
X028337Y017895D01*
X028337Y018052D02*
X028023Y018052D01*
X028023Y017895D02*
X028337Y018209D01*
X028180Y018209D02*
X028180Y017895D01*
X029005Y015597D02*
X029319Y015283D01*
X029162Y015283D02*
X029162Y015597D01*
X029319Y015597D02*
X029005Y015283D01*
X029005Y015440D02*
X029319Y015440D01*
X018629Y010807D02*
X018315Y010493D01*
X018472Y010493D02*
X018472Y010807D01*
X018315Y010807D02*
X018629Y010493D01*
X018629Y010650D02*
X018315Y010650D01*
D14*
X007664Y009224D02*
X007664Y005679D01*
X011536Y005679D02*
X011536Y009224D01*
X007664Y009224D01*
X005824Y013064D02*
X002279Y013064D01*
X005824Y013064D02*
X005824Y016936D01*
X002279Y016936D01*
X007433Y017790D02*
X007435Y017805D01*
X007441Y017818D01*
X007450Y017830D01*
X007461Y017839D01*
X007475Y017845D01*
X007490Y017847D01*
X007505Y017845D01*
X007518Y017839D01*
X007530Y017830D01*
X007539Y017819D01*
X007545Y017805D01*
X007547Y017790D01*
X007545Y017775D01*
X007539Y017762D01*
X007530Y017750D01*
X007519Y017741D01*
X007505Y017735D01*
X007490Y017733D01*
X007475Y017735D01*
X007462Y017741D01*
X007450Y017750D01*
X007441Y017761D01*
X007435Y017775D01*
X007433Y017790D01*
X007386Y020606D02*
X007386Y021394D01*
X007927Y021000D01*
X007386Y020606D01*
X007347Y024106D02*
X007347Y024894D01*
X007887Y024500D01*
X007347Y024106D01*
X007887Y024106D02*
X007887Y024894D01*
X005106Y027366D02*
X001094Y027366D01*
X016151Y027439D02*
X016151Y026730D01*
X020000Y026730D01*
X020000Y031280D01*
X016151Y031280D01*
X016151Y030571D01*
X017106Y030571D01*
X017106Y027439D01*
X016151Y027439D01*
X016151Y030571D01*
X022400Y023290D02*
X022400Y020710D01*
X023800Y020710D01*
X023800Y023290D01*
X022400Y023290D01*
X022948Y017333D02*
X018578Y017333D01*
X018578Y012667D01*
X022948Y012667D01*
X022948Y017333D01*
X022508Y016726D02*
X022508Y013274D01*
X022350Y013314D02*
X022350Y016686D01*
X022509Y016726D02*
X022507Y016759D01*
X022502Y016792D01*
X022492Y016824D01*
X022479Y016855D01*
X022463Y016885D01*
X022444Y016912D01*
X022422Y016937D01*
X022397Y016959D01*
X022370Y016978D01*
X022340Y016994D01*
X022309Y017007D01*
X022277Y017017D01*
X022244Y017022D01*
X022211Y017024D01*
X022211Y017023D02*
X021794Y017023D01*
X021788Y017042D01*
X021779Y017059D01*
X021767Y017074D01*
X021751Y017086D01*
X021734Y017095D01*
X021715Y017101D01*
X021696Y017103D01*
X021676Y017101D01*
X021658Y017095D01*
X021640Y017086D01*
X021625Y017074D01*
X021613Y017059D01*
X021604Y017041D01*
X021598Y017022D01*
X021596Y017003D01*
X021596Y016745D01*
X020346Y016745D01*
X020346Y016864D01*
X019652Y016864D01*
X019712Y017023D02*
X020128Y017023D01*
X020133Y017041D01*
X020141Y017059D01*
X020152Y017074D01*
X020166Y017088D01*
X020181Y017099D01*
X020199Y017107D01*
X020217Y017111D01*
X020236Y017113D01*
X020255Y017111D01*
X020274Y017106D01*
X020291Y017098D01*
X020307Y017087D01*
X020320Y017074D01*
X020331Y017058D01*
X020339Y017041D01*
X020344Y017022D01*
X020346Y017003D01*
X020346Y016884D01*
X019652Y016865D02*
X019621Y016863D01*
X019591Y016858D01*
X019561Y016850D01*
X019532Y016839D01*
X019505Y016825D01*
X019479Y016808D01*
X019455Y016788D01*
X019434Y016766D01*
X019434Y016765D02*
X018998Y016329D01*
X018879Y016428D02*
X019315Y016864D01*
X019316Y016864D02*
X019348Y016894D01*
X019383Y016921D01*
X019419Y016945D01*
X019458Y016966D01*
X019498Y016984D01*
X019539Y016999D01*
X019581Y017010D01*
X019625Y017018D01*
X019668Y017022D01*
X019712Y017023D01*
X020049Y016091D02*
X020207Y015873D01*
X021060Y015873D01*
X021219Y016091D01*
X020049Y016091D01*
X018879Y016428D02*
X018852Y016397D01*
X018828Y016364D01*
X018808Y016328D01*
X018791Y016291D01*
X018777Y016252D01*
X018768Y016213D01*
X018762Y016172D01*
X018760Y016131D01*
X018760Y013869D01*
X018918Y013869D02*
X018918Y016131D01*
X018918Y016130D02*
X018917Y016158D01*
X018920Y016185D01*
X018925Y016213D01*
X018934Y016239D01*
X018946Y016264D01*
X018960Y016287D01*
X018978Y016309D01*
X018997Y016329D01*
X021616Y016864D02*
X022171Y016864D01*
X022171Y016865D02*
X022196Y016863D01*
X022221Y016858D01*
X022245Y016849D01*
X022268Y016837D01*
X022288Y016821D01*
X022306Y016803D01*
X022322Y016783D01*
X022334Y016760D01*
X022343Y016736D01*
X022348Y016711D01*
X022350Y016686D01*
X021060Y014147D02*
X020207Y014147D01*
X020049Y013929D01*
X021219Y013929D01*
X021060Y014147D01*
X022171Y013135D02*
X022196Y013137D01*
X022221Y013142D01*
X022245Y013151D01*
X022268Y013163D01*
X022288Y013179D01*
X022306Y013197D01*
X022322Y013217D01*
X022334Y013240D01*
X022343Y013264D01*
X022348Y013289D01*
X022350Y013314D01*
X022509Y013274D02*
X022507Y013241D01*
X022502Y013208D01*
X022492Y013176D01*
X022479Y013145D01*
X022463Y013115D01*
X022444Y013088D01*
X022422Y013063D01*
X022397Y013041D01*
X022370Y013022D01*
X022340Y013006D01*
X022309Y012993D01*
X022277Y012983D01*
X022244Y012978D01*
X022211Y012976D01*
X022211Y012977D02*
X021794Y012977D01*
X021788Y012958D01*
X021779Y012941D01*
X021767Y012926D01*
X021751Y012914D01*
X021734Y012905D01*
X021715Y012899D01*
X021696Y012897D01*
X021676Y012899D01*
X021658Y012905D01*
X021640Y012914D01*
X021625Y012926D01*
X021613Y012941D01*
X021604Y012959D01*
X021598Y012978D01*
X021596Y012997D01*
X021596Y013255D01*
X020346Y013255D01*
X020346Y013136D01*
X019652Y013136D01*
X019712Y012977D02*
X020128Y012977D01*
X020133Y012959D01*
X020141Y012941D01*
X020152Y012926D01*
X020166Y012912D01*
X020181Y012901D01*
X020199Y012893D01*
X020217Y012889D01*
X020236Y012887D01*
X020255Y012889D01*
X020274Y012894D01*
X020291Y012902D01*
X020307Y012913D01*
X020320Y012926D01*
X020331Y012942D01*
X020339Y012959D01*
X020344Y012978D01*
X020346Y012997D01*
X020346Y013116D01*
X019652Y013135D02*
X019621Y013137D01*
X019591Y013142D01*
X019561Y013150D01*
X019532Y013161D01*
X019505Y013175D01*
X019479Y013192D01*
X019455Y013212D01*
X019434Y013234D01*
X019434Y013235D02*
X018998Y013671D01*
X018879Y013572D02*
X019315Y013136D01*
X019316Y013136D02*
X019348Y013106D01*
X019383Y013079D01*
X019419Y013055D01*
X019458Y013034D01*
X019498Y013016D01*
X019539Y013001D01*
X019581Y012990D01*
X019625Y012982D01*
X019668Y012978D01*
X019712Y012977D01*
X018879Y013572D02*
X018852Y013603D01*
X018828Y013636D01*
X018808Y013672D01*
X018791Y013709D01*
X018777Y013748D01*
X018768Y013787D01*
X018762Y013828D01*
X018760Y013869D01*
X018918Y013870D02*
X018917Y013842D01*
X018920Y013815D01*
X018925Y013787D01*
X018934Y013761D01*
X018946Y013736D01*
X018960Y013713D01*
X018978Y013691D01*
X018997Y013671D01*
X021616Y013136D02*
X022171Y013136D01*
X021872Y006091D02*
X021045Y006091D01*
X021872Y006091D02*
X021872Y005657D01*
X021872Y003807D02*
X021872Y001799D01*
X018328Y001799D01*
X018328Y006091D01*
X019076Y006091D01*
X040151Y018010D02*
X044000Y018010D01*
X044000Y021000D01*
X040151Y021000D01*
X040151Y020291D01*
X041106Y020291D01*
X041106Y018719D01*
X040151Y018719D01*
X040151Y018010D01*
X040151Y018719D02*
X040151Y020291D01*
X041647Y022138D02*
X042041Y022138D01*
X041647Y022138D02*
X041647Y026862D01*
X042041Y026862D01*
X043222Y026862D02*
X045978Y026862D01*
X045978Y022138D01*
X043222Y022138D01*
D15*
X005990Y015000D03*
D16*
X006415Y014000D03*
X006415Y016000D03*
D17*
X009600Y009390D03*
D18*
X008600Y009815D03*
X010600Y009815D03*
D19*
X010100Y013157D03*
X012100Y017157D03*
D20*
X004440Y027070D03*
X003770Y027070D03*
X003100Y027070D03*
X002430Y027070D03*
X001760Y027070D03*
D21*
X020279Y015674D02*
X020499Y015674D01*
X020499Y015601D02*
X020499Y015747D01*
X020353Y015601D02*
X020279Y015674D01*
X020771Y015317D02*
X020881Y015207D01*
X020881Y015354D01*
X020771Y015317D02*
X020992Y015317D01*
X020499Y014763D02*
X020499Y014616D01*
X020353Y014763D01*
X020316Y014763D01*
X020279Y014726D01*
X020279Y014653D01*
X020316Y014616D01*
X020771Y014431D02*
X020808Y014468D01*
X020845Y014468D01*
X020881Y014431D01*
X020918Y014468D01*
X020955Y014468D01*
X020992Y014431D01*
X020992Y014358D01*
X020955Y014321D01*
X020881Y014394D02*
X020881Y014431D01*
X020771Y014431D02*
X020771Y014358D01*
X020808Y014321D01*
X026800Y015350D02*
X026800Y012650D01*
X027100Y012650D02*
X027100Y015350D01*
X028050Y016011D02*
X028095Y015979D01*
X028137Y015943D01*
X028177Y015904D01*
X028214Y015863D01*
X028248Y015819D01*
X028279Y015772D01*
X028307Y015724D01*
X028331Y015674D01*
X028352Y015623D01*
X028369Y015570D01*
X028383Y015516D01*
X028392Y015461D01*
X028398Y015406D01*
X028400Y015350D01*
X028400Y012650D01*
X028100Y012650D02*
X028100Y015350D01*
X028099Y015388D01*
X028094Y015425D01*
X028087Y015462D01*
X028078Y015498D01*
X028065Y015534D01*
X028050Y015568D01*
X027150Y016011D02*
X027105Y015979D01*
X027063Y015943D01*
X027023Y015904D01*
X026986Y015862D01*
X026952Y015819D01*
X026921Y015772D01*
X026893Y015724D01*
X026869Y015674D01*
X026848Y015623D01*
X026831Y015570D01*
X026817Y015516D01*
X026808Y015461D01*
X026802Y015406D01*
X026800Y015350D01*
X027100Y015350D02*
X027101Y015388D01*
X027106Y015425D01*
X027113Y015462D01*
X027122Y015498D01*
X027135Y015534D01*
X027150Y015568D01*
X027600Y014400D02*
X027600Y014250D01*
X027600Y013750D02*
X027600Y013600D01*
X026800Y012650D02*
X026802Y012594D01*
X026808Y012539D01*
X026817Y012484D01*
X026831Y012430D01*
X026848Y012377D01*
X026869Y012326D01*
X026893Y012276D01*
X026921Y012228D01*
X026952Y012181D01*
X026986Y012137D01*
X027023Y012096D01*
X027063Y012057D01*
X027105Y012021D01*
X027150Y011989D01*
X028050Y011989D02*
X028095Y012021D01*
X028137Y012057D01*
X028177Y012096D01*
X028214Y012138D01*
X028248Y012181D01*
X028279Y012228D01*
X028307Y012276D01*
X028331Y012326D01*
X028352Y012377D01*
X028369Y012430D01*
X028383Y012484D01*
X028392Y012539D01*
X028398Y012594D01*
X028400Y012650D01*
X028100Y012650D02*
X028099Y012612D01*
X028094Y012575D01*
X028087Y012538D01*
X028078Y012502D01*
X028065Y012466D01*
X028050Y012432D01*
X027150Y012432D02*
X027135Y012466D01*
X027122Y012502D01*
X027113Y012538D01*
X027106Y012575D01*
X027101Y012612D01*
X027100Y012650D01*
D22*
X028380Y018940D02*
X028401Y018942D01*
X028421Y018947D01*
X028440Y018956D01*
X028457Y018968D01*
X028472Y018983D01*
X028484Y019000D01*
X028493Y019019D01*
X028498Y019039D01*
X028500Y019060D01*
X028498Y019081D01*
X028493Y019101D01*
X028484Y019120D01*
X028472Y019137D01*
X028457Y019152D01*
X028440Y019164D01*
X028421Y019173D01*
X028401Y019178D01*
X028380Y019180D01*
D23*
X024360Y024272D02*
X023651Y024272D01*
X024360Y024272D02*
X024401Y024301D01*
X024440Y024333D01*
X024477Y024368D01*
X024510Y024405D01*
X024541Y024445D01*
X024568Y024487D01*
X024593Y024531D01*
X024613Y024577D01*
X024630Y024625D01*
X024644Y024673D01*
X024653Y024723D01*
X024659Y024773D01*
X024661Y024823D01*
X024659Y024873D01*
X024653Y024923D01*
X024644Y024973D01*
X024630Y025021D01*
X024613Y025069D01*
X024593Y025115D01*
X024568Y025159D01*
X024541Y025201D01*
X024510Y025241D01*
X024477Y025278D01*
X024440Y025313D01*
X024401Y025345D01*
X024360Y025374D01*
X024399Y025335D02*
X024399Y025610D01*
X024872Y025650D02*
X022234Y025650D01*
X022232Y025622D01*
X022227Y025594D01*
X022217Y025567D01*
X022205Y025542D01*
X022189Y025518D01*
X022170Y025497D01*
X022149Y025478D01*
X022126Y025462D01*
X022100Y025450D01*
X022073Y025440D01*
X022045Y025435D01*
X022017Y025433D01*
X021989Y025435D01*
X021961Y025440D01*
X021934Y025450D01*
X021909Y025462D01*
X021885Y025478D01*
X021864Y025497D01*
X021845Y025518D01*
X021829Y025542D01*
X021817Y025567D01*
X021807Y025594D01*
X021802Y025622D01*
X021800Y025650D01*
X021801Y025650D02*
X021171Y025650D01*
X021171Y029350D01*
X024872Y029350D01*
X024872Y025650D01*
X023652Y025374D02*
X023611Y025345D01*
X023572Y025313D01*
X023535Y025278D01*
X023502Y025241D01*
X023471Y025201D01*
X023444Y025159D01*
X023419Y025115D01*
X023399Y025069D01*
X023382Y025021D01*
X023368Y024973D01*
X023359Y024923D01*
X023353Y024873D01*
X023351Y024823D01*
X023353Y024773D01*
X023359Y024723D01*
X023368Y024673D01*
X023382Y024625D01*
X023399Y024577D01*
X023419Y024531D01*
X023444Y024487D01*
X023471Y024445D01*
X023502Y024405D01*
X023535Y024368D01*
X023572Y024333D01*
X023611Y024301D01*
X023652Y024272D01*
X023612Y025335D02*
X023612Y025610D01*
X023612Y029390D02*
X023612Y029665D01*
X024360Y029626D02*
X024401Y029655D01*
X024440Y029687D01*
X024477Y029722D01*
X024510Y029759D01*
X024541Y029799D01*
X024568Y029841D01*
X024593Y029885D01*
X024613Y029931D01*
X024630Y029979D01*
X024644Y030027D01*
X024653Y030077D01*
X024659Y030127D01*
X024661Y030177D01*
X024659Y030227D01*
X024653Y030277D01*
X024644Y030327D01*
X024630Y030375D01*
X024613Y030423D01*
X024593Y030469D01*
X024568Y030513D01*
X024541Y030555D01*
X024510Y030595D01*
X024477Y030632D01*
X024440Y030667D01*
X024401Y030699D01*
X024360Y030728D01*
X023651Y030728D01*
X023652Y030728D02*
X023611Y030699D01*
X023572Y030667D01*
X023535Y030632D01*
X023502Y030595D01*
X023471Y030555D01*
X023444Y030513D01*
X023419Y030469D01*
X023399Y030423D01*
X023382Y030375D01*
X023368Y030327D01*
X023359Y030277D01*
X023353Y030227D01*
X023351Y030177D01*
X023353Y030127D01*
X023359Y030077D01*
X023368Y030027D01*
X023382Y029979D01*
X023399Y029931D01*
X023419Y029885D01*
X023444Y029841D01*
X023471Y029799D01*
X023502Y029759D01*
X023535Y029722D01*
X023572Y029687D01*
X023611Y029655D01*
X023652Y029626D01*
X024399Y029665D02*
X024399Y029390D01*
D24*
X006171Y029279D03*
X005629Y029279D03*
D25*
X005900Y029431D03*
D26*
X008181Y021000D03*
M02*
