G75*
G70*
%OFA0B0*%
%FSLAX24Y24*%
%IPPOS*%
%LPD*%
%AMOC8*
5,1,8,0,0,1.08239X$1,22.5*
%
%ADD10C,0.1260*%
%ADD11C,0.0560*%
%ADD12C,0.1306*%
%ADD13R,0.0827X0.0827*%
%ADD14C,0.1181*%
%ADD15C,0.0866*%
%ADD16C,0.0768*%
%ADD17C,0.0906*%
%ADD18C,0.0562*%
%ADD19C,0.0550*%
%ADD20C,0.0580*%
%ADD21C,0.0860*%
%ADD22C,0.0472*%
%ADD23C,0.0945*%
%ADD24C,0.1660*%
%ADD25C,0.1502*%
%ADD26C,0.1004*%
%ADD27R,0.0396X0.0396*%
%ADD28OC8,0.0396*%
D10*
X001600Y002500D03*
X038600Y018000D03*
X042600Y015000D03*
X042600Y010500D03*
X044600Y004000D03*
X040100Y004000D03*
X044600Y028000D03*
X007100Y030500D03*
D11*
X020037Y015492D03*
X020037Y014508D03*
X021297Y014508D03*
X021297Y015492D03*
X039100Y014500D03*
X040100Y014000D03*
X039100Y013500D03*
X040100Y013000D03*
X039100Y012500D03*
X040100Y012000D03*
X039100Y011500D03*
X040100Y011000D03*
X041100Y007500D03*
X042100Y007500D03*
X043100Y007500D03*
X044100Y007500D03*
X043600Y006500D03*
X042600Y006500D03*
X041600Y006500D03*
X040600Y006500D03*
D12*
X021100Y012630D03*
X021100Y017370D03*
D13*
X022017Y026673D03*
X022017Y028327D03*
X024183Y028327D03*
X024183Y026673D03*
D14*
X024002Y024823D03*
X024002Y030177D03*
D15*
X015100Y007500D03*
D16*
X013600Y010500D03*
X016600Y010500D03*
D17*
X024100Y004736D03*
X024100Y002500D03*
X029273Y002500D03*
X031100Y002500D03*
X031100Y004736D03*
X029273Y004736D03*
X036273Y004736D03*
X036273Y002500D03*
D18*
X035065Y003567D03*
X034080Y003567D03*
X033293Y003567D03*
X032309Y003567D03*
X032309Y004598D03*
X033293Y004598D03*
X034080Y004598D03*
X035065Y004598D03*
X028065Y004598D03*
X027080Y004598D03*
X026293Y004598D03*
X025309Y004598D03*
X025309Y003567D03*
X026293Y003567D03*
X027080Y003567D03*
X028065Y003567D03*
D19*
X037600Y029500D03*
X038600Y029500D03*
X042100Y029500D03*
X043100Y029500D03*
D20*
X043100Y029500D03*
X042100Y029500D03*
X038600Y029500D03*
X037600Y029500D03*
D21*
X042631Y026469D03*
X042631Y025484D03*
X044600Y024500D03*
X042631Y023516D03*
X042631Y022531D03*
D22*
X044600Y022531D03*
X045584Y022531D03*
X042631Y024500D03*
X044600Y026469D03*
X045584Y026469D03*
D23*
X043801Y015843D03*
X043801Y009657D03*
X045443Y002799D03*
X039257Y002799D03*
D24*
X020100Y005854D03*
D25*
X021990Y004732D03*
X020100Y003394D03*
D26*
X041598Y018720D02*
X042602Y018720D01*
X042602Y020280D02*
X041598Y020280D01*
X018602Y027441D02*
X017598Y027441D01*
X017598Y029000D02*
X018602Y029000D01*
X018602Y030559D02*
X017598Y030559D01*
D27*
X027850Y026850D03*
X030850Y027000D03*
X036100Y023000D03*
X034100Y022000D03*
X030600Y019000D03*
X030600Y017400D03*
X030100Y017100D03*
X029600Y017100D03*
X030900Y016000D03*
X031850Y015650D03*
X033100Y016000D03*
X033800Y015200D03*
X032600Y014400D03*
X033200Y013400D03*
X033100Y012500D03*
X031850Y012700D03*
X030700Y012300D03*
X030100Y012000D03*
X029100Y012600D03*
X029100Y013200D03*
X026600Y012500D03*
X027900Y008500D03*
X033100Y011500D03*
X035600Y011500D03*
X032400Y017000D03*
X027600Y017400D03*
X028600Y021000D03*
D28*
X029600Y020750D03*
X030600Y021000D03*
X031100Y021500D03*
X031600Y021000D03*
X033100Y020000D03*
X029650Y018800D03*
X028100Y018500D03*
X028100Y017700D03*
X026600Y018500D03*
X027650Y019400D03*
X027100Y021000D03*
X026600Y021500D03*
X027100Y022000D03*
X025600Y022000D03*
X024100Y020550D03*
X023100Y020000D03*
X021650Y018250D03*
X022600Y015500D03*
X023500Y015400D03*
X024600Y015500D03*
X026600Y016400D03*
X028700Y015500D03*
X029100Y014500D03*
X027600Y014550D03*
X026650Y014500D03*
X027600Y013400D03*
X028950Y012050D03*
X029600Y011500D03*
X027800Y010700D03*
X029600Y008750D03*
X028100Y008000D03*
X027100Y006000D03*
X025600Y008000D03*
X024600Y010500D03*
X025100Y011000D03*
X023100Y010500D03*
X015600Y012500D03*
X015600Y015000D03*
X009100Y012500D03*
X007600Y011000D03*
X006600Y012000D03*
X005100Y012000D03*
X004900Y012650D03*
X003950Y011300D03*
X003220Y010120D03*
X003800Y009800D03*
X005100Y009000D03*
X006100Y009400D03*
X005100Y005000D03*
X003100Y003000D03*
X008600Y002500D03*
X009100Y018000D03*
X010600Y020000D03*
X011600Y020000D03*
X013100Y020500D03*
X013450Y021500D03*
X011950Y022500D03*
X010450Y022800D03*
X009600Y023000D03*
X007600Y024500D03*
X009600Y025000D03*
X009100Y026500D03*
X012600Y028500D03*
X015350Y026050D03*
X005100Y025500D03*
X004850Y024750D03*
X003600Y023000D03*
X027850Y030750D03*
X033600Y025000D03*
X029100Y022000D03*
X031100Y017400D03*
X029800Y016600D03*
X033200Y014200D03*
X032300Y013100D03*
X036100Y011000D03*
X035300Y008100D03*
X033600Y006000D03*
X032600Y008500D03*
X037100Y005500D03*
X037600Y006000D03*
M02*
