%
M48
M72
T01C0.0236
T02C0.0350
T03C0.0354
T04C0.0362
T05C0.0472
T06C0.0512
T07C0.0551
T08C0.0580
T09C0.0630
T10C0.0669
T11C0.0866
T12C0.0906
T13C0.1102
T14C0.1181
T15C0.1260
%
T01
X3100Y3000
X5100Y5000
X8600Y2500
X5100Y9000
X6100Y9400
X3800Y9800
X3220Y10120
X3950Y11300
X5100Y12000
X4900Y12650
X6600Y12000
X7600Y11000
X9100Y12500
X15600Y12500
X15600Y15000
X21650Y18250
X23100Y20000
X24100Y20550
X25600Y22000
X26600Y21500
X27100Y21000
X27100Y22000
X28600Y21000
X29600Y20750
X30600Y21000
X31100Y21500
X31600Y21000
X33100Y20000
X30600Y19000
X29650Y18800
X28100Y18500
X28100Y17700
X27600Y17400
X26600Y16400
X24600Y15500
X23500Y15400
X22600Y15500
X26650Y14500
X27600Y14550
X27600Y13400
X26600Y12500
X25100Y11000
X24600Y10500
X23100Y10500
X25600Y8000
X27900Y8500
X28100Y8000
X29600Y8750
X27800Y10700
X28950Y12050
X29100Y12600
X29100Y13200
X30100Y12000
X30700Y12300
X31850Y12700
X32300Y13100
X33200Y13400
X33200Y14200
X32600Y14400
X33800Y15200
X33100Y16000
X31850Y15650
X30900Y16000
X29800Y16600
X29600Y17100
X30100Y17100
X30600Y17400
X31100Y17400
X32400Y17000
X29100Y14500
X28700Y15500
X26600Y18500
X27650Y19400
X29100Y22000
X33600Y25000
X36100Y23000
X34100Y22000
X30850Y27000
X27850Y26850
X27850Y30750
X15350Y26050
X12600Y28500
X9100Y26500
X9600Y25000
X7600Y24500
X9600Y23000
X10450Y22800
X11950Y22500
X13450Y21500
X13100Y20500
X11600Y20000
X10600Y20000
X9100Y18000
X3600Y23000
X4850Y24750
X5100Y25500
X29600Y11500
X33100Y11500
X33100Y12500
X35600Y11500
X36100Y11000
X35300Y8100
X33600Y6000
X32600Y8500
X37100Y5500
X37600Y6000
X27100Y6000
T02
X37600Y29500
X38600Y29500
X42100Y29500
X43100Y29500
T03
X39100Y14500
X40100Y14000
X39100Y13500
X40100Y13000
X39100Y12500
X40100Y12000
X39100Y11500
X40100Y11000
X41100Y7500
X42100Y7500
X43100Y7500
X44100Y7500
X43600Y6500
X42600Y6500
X41600Y6500
X40600Y6500
X21297Y14508
X21297Y15492
X20037Y15492
X20037Y14508
T04
X25309Y4598
X26293Y4598
X27080Y4598
X28065Y4598
X28065Y3567
X27080Y3567
X26293Y3567
X25309Y3567
X32309Y3567
X33293Y3567
X34080Y3567
X35065Y3567
X35065Y4598
X34080Y4598
X33293Y4598
X32309Y4598
T05
X44600Y22531
X45584Y22531
X42631Y24500
X44600Y26469
X45584Y26469
T06
X44600Y24500
X42631Y23516
X42631Y22531
X42631Y25484
X42631Y26469
X16600Y10500
X13600Y10500
T07
X22017Y26673
X22017Y28327
X24183Y28327
X24183Y26673
T08
X37600Y29500
X38600Y29500
X42100Y29500
X43100Y29500
T09
X43801Y15843
X43801Y9657
X45443Y2799
X39257Y2799
T10
X42100Y18720
X42100Y20280
X18100Y27441
X18100Y29000
X18100Y30559
T11
X15100Y7500
T12
X21100Y12630
X21100Y17370
X24100Y4736
X24100Y2500
X29273Y2500
X31100Y2500
X31100Y4736
X29273Y4736
X36273Y4736
X36273Y2500
T13
X21990Y4732
X20100Y3394
T14
X24002Y24823
X24002Y30177
T15
X1600Y2500
X20100Y5854
X38600Y18000
X42600Y15000
X42600Y10500
X44600Y4000
X40100Y4000
X44600Y28000
X7100Y30500
M30
